<svg width="47" height="47" viewBox="0 0 47 47" fill="none" xmlns="http://www.w3.org/2000/svg">
<path d="M39.8712 6.73145C42.6916 9.55326 42.7965 14.0454 41.359 18.5491C40.7993 20.2651 40.0773 21.9238 39.2028 23.5028C40.0773 25.0817 40.7993 26.7404 41.359 28.4564C42.7965 32.9615 42.6916 37.4551 39.8712 40.2755C37.0494 43.0959 32.5572 43.2008 28.0521 41.7633C26.3361 41.2035 24.6774 40.4815 23.0985 39.6071C21.5195 40.4816 19.8608 41.2036 18.1448 41.7633C13.6412 43.2008 9.14896 43.0959 6.32859 40.2755C3.50678 37.4537 3.40184 32.9615 4.83934 28.4564C5.35253 26.8464 6.07703 25.1818 6.99559 23.5028C6.12103 21.9238 5.39901 20.2651 4.83934 18.5491C3.40184 14.0454 3.50678 9.55326 6.32715 6.73289C9.14896 3.91107 13.6412 3.80614 18.1448 5.24364C19.7548 5.75682 21.4223 6.48132 23.0985 7.39989C24.6774 6.52534 26.3361 5.80333 28.0521 5.24364C32.5572 3.80614 37.0508 3.91107 39.8712 6.73145ZM8.75221 26.3821C8.27496 27.3883 7.88253 28.3759 7.57778 29.3304C6.25528 33.4718 6.69084 36.5725 8.35978 38.2429C10.0302 39.9118 13.1308 40.3459 17.2723 39.0249C18.28 38.6993 19.265 38.3069 20.2206 37.8504C17.9698 36.3207 15.8702 34.5797 13.9502 32.651C12.0221 30.7314 10.2816 28.6323 8.75221 26.3821ZM37.4447 26.3821C35.9153 28.6323 34.1748 30.7314 32.2467 32.651C30.3272 34.5796 28.228 36.3206 25.9778 37.8504C26.984 38.3277 27.9716 38.7201 28.9261 39.0249C33.0675 40.3474 36.1682 39.9118 37.8386 38.2414C39.5075 36.5725 39.9417 33.4718 38.6206 29.3304C38.295 28.3226 37.9026 27.3377 37.4461 26.3821H37.4447ZM23.0985 10.7219C20.7093 12.1882 18.2828 14.09 15.9828 16.3886C13.6857 18.6857 11.7825 21.1136 10.3177 23.5042C11.7839 25.8933 13.6857 28.3198 15.9843 30.6198C18.2814 32.9169 20.7093 34.8188 23.0999 36.285C25.489 34.8188 27.9155 32.9169 30.2155 30.6184C32.5126 28.3198 34.4145 25.8933 35.8807 23.5028C34.4145 21.1136 32.5126 18.6871 30.2141 16.3871C27.9155 14.09 25.489 12.1868 23.0985 10.7219ZM23.0985 19.909C24.0516 19.909 24.9657 20.2876 25.6396 20.9616C26.3136 21.6356 26.6922 22.5496 26.6922 23.5028C26.6922 24.4559 26.3136 25.37 25.6396 26.0439C24.9657 26.7179 24.0516 27.0965 23.0985 27.0965C22.1453 27.0965 21.2313 26.7179 20.5573 26.0439C19.8833 25.37 19.5047 24.4559 19.5047 23.5028C19.5047 22.5496 19.8833 21.6356 20.5573 20.9616C21.2313 20.2876 22.1453 19.909 23.0985 19.909ZM8.35978 8.76407C6.69084 10.4344 6.25671 13.5351 7.57778 17.6766C7.88253 18.6311 8.27496 19.6172 8.75221 20.6249C10.2815 18.3742 12.022 16.2745 13.9502 14.3545C15.8702 12.4263 17.9699 10.6858 20.2206 9.15651C19.2143 8.67926 18.2268 8.28682 17.2708 7.98207C13.1308 6.65957 10.0302 7.09514 8.35978 8.76407ZM28.9261 7.98207C27.9716 8.28682 26.9855 8.67926 25.9778 9.15651C28.228 10.6859 30.3271 12.4264 32.2467 14.3545C34.1754 16.2745 35.9164 18.3741 37.4461 20.6249C37.9234 19.6186 38.3158 18.6311 38.6206 17.6751C39.9431 13.5351 39.5075 10.4344 37.8371 8.76407C36.1682 7.09514 33.0675 6.66101 28.9261 7.98207Z" fill="white"/>
</svg>
