<svg width="47" height="47" viewBox="0 0 47 47" fill="none" xmlns="http://www.w3.org/2000/svg">
<path d="M23.1328 45.6471C21.9828 45.6471 20.5453 45.3596 19.3953 44.7846L6.45781 37.3096C4.44531 35.8721 3.00781 33.5721 3.00781 30.9846V16.0346C3.00781 13.4471 4.44531 11.1471 6.74531 9.70957L19.6828 2.23457C21.9828 1.08457 24.5703 1.08457 26.8703 2.23457L39.8078 9.70957C41.8203 11.1471 43.2578 13.4471 43.2578 16.0346V30.9846C43.2578 33.5721 41.8203 35.8721 39.5203 37.3096L26.5828 44.7846C25.7203 45.3596 24.2828 45.6471 23.1328 45.6471ZM23.1328 4.24707C22.2703 4.24707 21.6953 4.53457 20.8328 4.82207L8.18281 12.2971C6.74531 13.1596 5.88281 14.5971 5.88281 16.0346V30.9846C5.88281 32.4221 6.74531 33.8596 8.18281 34.7221L21.1203 42.1971C22.5578 43.0596 23.9953 43.0596 25.4328 42.1971L38.3703 34.7221C39.8078 33.8596 40.6703 32.4221 40.6703 30.9846V16.0346C40.6703 14.5971 39.8078 13.1596 38.3703 12.2971L25.4328 4.82207C24.5703 4.53457 23.9953 4.24707 23.1328 4.24707ZM23.1328 32.1346C18.2453 32.1346 14.5078 28.3971 14.5078 23.5096C14.5078 18.6221 18.2453 14.8846 23.1328 14.8846C28.0203 14.8846 31.7578 18.6221 31.7578 23.5096C31.7578 28.3971 28.0203 32.1346 23.1328 32.1346ZM23.1328 17.7596C19.9703 17.7596 17.3828 20.3471 17.3828 23.5096C17.3828 26.6721 19.9703 29.2596 23.1328 29.2596C26.2953 29.2596 28.8828 26.6721 28.8828 23.5096C28.8828 20.3471 26.2953 17.7596 23.1328 17.7596Z" fill="white"/>
</svg>
