<svg width="47" height="47" viewBox="0 0 47 47" fill="none" xmlns="http://www.w3.org/2000/svg">
<path d="M41.1376 38.6397C38.9229 31.1332 32.2835 25.783 24.476 25.2215V17.1131H29.8442C30.5854 17.1131 31.1874 16.5111 31.1874 15.7699V10.4018C31.1874 9.66055 30.5854 9.05859 29.8442 9.05859H16.426C15.6848 9.05859 15.0829 9.66055 15.0829 10.4018V15.7699C15.0829 16.5111 15.6848 17.1131 16.426 17.1131H21.7942V25.226C13.9868 25.7875 7.34284 31.1332 5.1282 38.6441C3.68171 38.9586 2.76081 40.3826 3.07077 41.8336C3.38523 43.2801 4.80925 44.201 6.26023 43.891C7.49558 43.626 8.37605 42.5299 8.37605 41.2676C8.37605 40.5758 8.10652 39.9514 7.67976 39.4797C9.53503 33.0738 15.1458 28.4738 21.7942 27.9168V38.9586C20.9946 39.4213 20.451 40.2793 20.451 41.2721C20.451 42.7545 21.6505 43.9539 23.1329 43.9539C24.6153 43.9539 25.8147 42.7545 25.8147 41.2721C25.8147 40.2838 25.2712 39.4258 24.4716 38.9586V27.9078C31.12 28.4648 36.7307 33.0648 38.586 39.4707C38.1413 39.9604 37.8897 40.5982 37.8897 41.2586C37.8897 42.741 39.0891 43.9404 40.5716 43.9404C42.054 43.9404 43.2534 42.741 43.2534 41.2586C43.2579 39.9963 42.3729 38.9047 41.1376 38.6397Z" fill="white"/>
<path d="M13.7398 22.4771H16.9877C17.7289 22.4771 18.3309 21.8752 18.3309 21.134C18.3309 20.3928 17.7289 19.7908 16.9877 19.7908H13.7398C12.9986 19.7908 12.3967 19.1889 12.3967 18.4477V7.72031C12.3967 6.9791 12.9986 6.37715 13.7398 6.37715H32.5217C33.2629 6.37715 33.8648 6.9791 33.8648 7.72031V18.4521C33.8648 19.1934 33.2629 19.7953 32.5217 19.7953H28.7213C27.9801 19.7953 27.3781 20.3973 27.3781 21.1385C27.3781 21.8797 27.9801 22.4816 28.7213 22.4816H32.5217C34.7453 22.4816 36.5467 20.6803 36.5467 18.4566V7.72031C36.5467 5.49668 34.7453 3.69531 32.5217 3.69531H13.7398C11.5162 3.69531 9.71484 5.49668 9.71484 7.72031V18.4521C9.71484 20.6758 11.5207 22.4771 13.7398 22.4771Z" fill="white"/>
</svg>
