<svg width="111" height="33" viewBox="0 0 111 33" fill="none" xmlns="http://www.w3.org/2000/svg">
<path d="M102.771 21.9912C100.09 21.9912 97.4171 21.9912 94.7368 21.9912C94.5279 21.9912 94.5418 21.9912 94.5488 22.1993C94.5906 23.0315 94.702 23.8499 94.9456 24.6405C95.5026 26.4576 96.5608 27.8794 98.3012 28.7394C99.2341 29.204 100.23 29.4052 101.274 29.4398C102.29 29.4676 103.293 29.3774 104.247 29.0098C105.66 28.4619 106.649 27.484 107.212 26.09C107.268 25.9513 107.324 25.9305 107.456 25.9721C108.466 26.2565 109.468 26.5478 110.478 26.8182C110.631 26.8599 110.645 26.9084 110.596 27.0471C109.914 29.0029 108.619 30.4247 106.795 31.3956C105.695 31.9782 104.525 32.325 103.286 32.4706C101.622 32.6648 99.9721 32.6093 98.3569 32.1585C95.6627 31.4095 93.7203 29.7519 92.4254 27.3037C91.778 26.0762 91.402 24.7584 91.2141 23.3852C90.9077 21.159 90.9843 18.9535 91.597 16.7827C92.1052 14.9864 92.9685 13.3774 94.2912 12.0389C95.6279 10.6865 97.2222 9.81262 99.1019 9.45197C101.232 9.04278 103.321 9.20923 105.326 10.0554C107.456 10.957 108.967 12.5105 109.914 14.6119C110.408 15.7077 110.693 16.859 110.853 18.045C111.021 19.3141 110.993 20.5902 111 21.8594C111 22.012 110.916 21.9912 110.826 21.9912C108.138 21.9912 105.458 21.9912 102.771 21.9912ZM101.009 18.9951C102.263 18.9951 103.516 18.9951 104.769 18.9951C105.604 18.9951 106.447 18.9951 107.282 18.9951C107.421 18.9951 107.449 18.9604 107.449 18.8287C107.428 18.2253 107.366 17.6219 107.219 17.0324C106.85 15.6106 106.147 14.3969 104.943 13.5092C103.349 12.3371 101.566 12.1568 99.6867 12.5313C98.4266 12.781 97.3823 13.4398 96.5121 14.3622C95.3355 15.6106 94.7298 17.1156 94.5627 18.8078C94.5488 18.9604 94.5836 18.9951 94.7437 18.9951C96.8323 18.9951 98.9278 18.9951 101.016 18.9951H101.009Z" fill="#FEFEFE"/>
<path d="M67.8019 20.8125C67.8019 17.1229 67.8019 13.4332 67.8019 9.74359C67.8019 9.55634 67.8576 9.52166 68.0316 9.52859C69.0341 9.53553 70.0297 9.52859 71.0322 9.52859C71.1645 9.52859 71.1923 9.56327 71.1923 9.68811C71.1923 10.7492 71.1923 11.8173 71.1923 12.8784C71.1923 12.9408 71.1366 13.0448 71.255 13.0518C71.3594 13.0657 71.4708 13.0865 71.5404 12.9408C72.0765 11.8034 72.9049 10.9226 73.9701 10.2499C74.7498 9.75746 75.6131 9.48698 76.5251 9.34827C77.3675 9.22344 78.2168 9.20263 79.0662 9.27892C80.7231 9.43843 82.2269 9.9794 83.4522 11.1376C84.3851 12.0184 84.9768 13.1142 85.3319 14.3348C85.6312 15.3682 85.7565 16.4224 85.7565 17.4974C85.7565 22.2898 85.7565 27.0821 85.7565 31.8814C85.7565 32.0409 85.7217 32.0895 85.5546 32.0895C84.5173 32.0826 83.487 32.0826 82.4497 32.0895C82.2965 32.0895 82.2617 32.0548 82.2617 31.9022C82.2617 27.2486 82.2617 22.6018 82.2617 17.9482C82.2617 16.9426 82.1224 15.9647 81.6838 15.0561C80.9946 13.6344 79.8668 12.7605 78.3004 12.4761C76.9498 12.2334 75.634 12.3444 74.3878 12.9339C72.9467 13.6205 72.0556 14.7787 71.5961 16.2768C71.3733 16.9911 71.2898 17.7263 71.2898 18.4753C71.2898 22.9417 71.2898 27.4081 71.2898 31.8814C71.2898 32.0479 71.255 32.0964 71.0809 32.0964C70.0436 32.0895 69.0132 32.0895 67.9759 32.0964C67.8367 32.0964 67.7949 32.0618 67.7949 31.923C67.7949 28.2195 67.7949 24.523 67.7949 20.8194L67.8019 20.8125Z" fill="#FEFEFE"/>
<path d="M0.500977 31.5765C0.835146 31.0494 1.14843 30.5501 1.46171 30.0577C1.64968 29.7594 1.84462 29.4612 2.02563 29.1561C2.10221 29.0312 2.18575 28.9827 2.33891 28.9827C5.04011 28.9827 7.74132 28.9827 10.4425 28.9896C10.5748 28.9896 10.6514 28.948 10.728 28.8509C13.0463 25.9727 15.3646 23.1014 17.6829 20.2232C19.3746 18.1218 21.0663 16.0273 22.7581 13.9259C24.7979 11.4014 26.8308 8.86998 28.8706 6.34549C30.1098 4.80582 31.349 3.2731 32.5882 1.73343C32.6718 1.63634 32.7483 1.59473 32.8737 1.59473C36.5565 1.59473 40.2393 1.59473 43.9291 1.59473C44.0683 1.59473 44.1171 1.65946 44.0753 1.78892C43.8247 2.53101 43.5671 3.2731 43.3165 4.02212C43.2747 4.14696 43.212 4.18164 43.0798 4.18164C40.3646 4.18164 37.6565 4.18164 34.9413 4.18164C34.8021 4.18164 34.7116 4.23018 34.6211 4.33421C33.0199 6.31081 31.4117 8.28047 29.8104 10.2501C28.1187 12.3307 26.42 14.4183 24.7283 16.4989C23.0853 18.5171 21.4423 20.5284 19.8062 22.5466C17.9196 24.863 16.0329 27.1864 14.1462 29.5028C13.6032 30.1686 13.0602 30.8344 12.5241 31.5002C12.4754 31.5627 12.4267 31.5765 12.3501 31.5765C9.33559 31.5765 6.31413 31.5765 3.29965 31.5765C2.44334 31.5765 1.58703 31.5765 0.730718 31.5765H0.507938H0.500977Z" fill="#FEFEFE"/>
<path d="M48.0859 17.0398C48.0859 12.1018 48.0859 7.16375 48.0859 2.23268C48.0859 2.05929 48.1207 2.01074 48.3018 2.01074C49.3251 2.01768 50.3485 2.01768 51.3719 2.01074C51.5529 2.01074 51.5738 2.06623 51.5738 2.22574C51.5738 6.12344 51.5738 10.0142 51.5738 13.9119C51.5738 19.9041 51.5738 25.8894 51.5738 31.8816C51.5738 32.0411 51.539 32.0896 51.3719 32.0896C50.3416 32.0827 49.3112 32.0827 48.2878 32.0896C48.1277 32.0896 48.0929 32.048 48.0929 31.8885C48.0929 26.9436 48.0929 21.9917 48.0929 17.0467L48.0859 17.0398Z" fill="#FEFEFE"/>
<path d="M61.4243 20.8192C61.4243 24.5088 61.4243 28.1985 61.4243 31.8881C61.4243 32.0407 61.3964 32.0892 61.2294 32.0823C60.192 32.0754 59.1478 32.0823 58.1104 32.0823C57.9712 32.0823 57.9434 32.0476 57.9434 31.9089C57.9434 24.5157 57.9434 17.1157 57.9434 9.72251C57.9434 9.57687 57.9782 9.52832 58.1313 9.52832C59.1617 9.53526 60.192 9.53526 61.2154 9.52832C61.3756 9.52832 61.4243 9.55606 61.4243 9.72945C61.4243 13.426 61.4243 17.1226 61.4243 20.8122V20.8192Z" fill="#FEFEFE"/>
<path d="M17.6274 17.608C17.5717 17.6427 17.5161 17.6289 17.4673 17.6289C16.1933 17.6289 14.9193 17.6289 13.6383 17.6289C13.5199 17.6289 13.4503 17.5942 13.3807 17.504C11.7377 15.5482 10.0947 13.5994 8.44474 11.6436C7.21946 10.1872 5.9872 8.73072 4.75495 7.26734C3.29992 5.54043 1.84489 3.81351 0.382903 2.08659C0.257589 1.93401 0.125314 1.78143 0 1.62885C0.0417712 1.58031 0.0905043 1.60111 0.132275 1.60111C1.42022 1.60111 2.70817 1.60111 3.99611 1.60111C4.1075 1.60111 4.17016 1.63579 4.23978 1.71901C5.83404 3.61238 7.42831 5.50575 9.02258 7.39218C10.5542 9.2162 12.0928 11.0333 13.6244 12.8573C14.9402 14.4178 16.256 15.9852 17.5787 17.5456C17.5926 17.5664 17.6066 17.5872 17.6274 17.615V17.608Z" fill="#FEFEFE"/>
<path d="M44.4861 31.9712C43.4418 31.9712 42.4114 31.9712 41.3741 31.9712C41.0887 31.9712 40.8032 31.9573 40.5108 31.9573C40.3925 31.9573 40.3229 31.9227 40.2463 31.8325C39.1811 30.6049 38.116 29.3774 37.0508 28.1498C35.7002 26.5963 34.3566 25.0427 33.0059 23.4892C31.6484 21.9218 30.2908 20.3544 28.9333 18.7939C28.3485 18.1212 27.7637 17.4415 27.1789 16.7688C27.158 16.741 27.1371 16.7202 27.1162 16.6855C27.513 16.6855 27.889 16.6855 28.2719 16.6855C28.794 16.6855 29.3162 16.6994 29.8383 16.7064C30.2769 16.7064 30.7225 16.7272 31.1611 16.7272C31.2376 16.7272 31.2864 16.7618 31.3351 16.8173C32.6022 18.2738 33.8623 19.7302 35.1293 21.1936C36.4799 22.754 37.8305 24.3076 39.1811 25.868C40.6083 27.5117 42.0355 29.1554 43.4557 30.7991C43.776 31.1667 44.0962 31.5343 44.4164 31.9018C44.4443 31.9296 44.4791 31.9504 44.4791 31.9781L44.4861 31.9712Z" fill="#FEFEFE"/>
<path d="M7.24732 1.59473H7.45618C8.71628 1.59473 9.97637 1.59473 11.2295 1.59473C11.3548 1.59473 11.4453 1.6294 11.5219 1.7265C12.3295 2.65584 13.1371 3.58519 13.9446 4.5076C14.5921 5.24969 15.2395 5.99178 15.894 6.73387C16.7851 7.75337 17.6692 8.77288 18.5604 9.78545C19.2705 10.5969 19.9806 11.4083 20.6837 12.2198C21.0249 12.6082 21.366 12.9965 21.7002 13.3849C21.721 13.4057 21.728 13.4265 21.7489 13.4612C21.6862 13.5028 21.6305 13.489 21.5748 13.489C20.3078 13.489 19.0477 13.489 17.7806 13.489C17.6692 13.489 17.5857 13.4543 17.5161 13.3711C16.7712 12.518 16.0262 11.658 15.2813 10.805C14.6478 10.0767 14.0073 9.34852 13.3668 8.6203C12.3921 7.51063 11.4244 6.39403 10.4498 5.28437C9.73271 4.45905 9.00867 3.64067 8.2916 2.81536C7.95047 2.42698 7.60934 2.03166 7.2334 1.60166L7.24732 1.59473Z" fill="#8187C2"/>
<path d="M22.8975 20.5138C23.3012 20.5138 23.6842 20.4999 24.0671 20.5138C24.5474 20.5415 25.0278 20.5276 25.5151 20.5415C25.9885 20.5484 26.4689 20.5623 26.9423 20.5693C27.0258 20.5693 27.0815 20.6039 27.1303 20.6594C27.7568 21.353 28.3765 22.0465 29.003 22.74C29.5391 23.3365 30.0751 23.9329 30.6112 24.5294C31.4745 25.4934 32.3447 26.4574 33.208 27.4145C33.8206 28.0942 34.4333 28.7739 35.0459 29.4535C35.756 30.2442 36.4731 31.0348 37.1832 31.8254C37.1971 31.8393 37.2111 31.8601 37.2319 31.8948C36.7864 31.8948 36.3617 31.9156 35.944 31.8948C35.4776 31.867 35.0111 31.8809 34.5516 31.874C34.0991 31.874 33.6466 31.874 33.1941 31.8462C33.0896 31.8462 33.0339 31.7908 32.9782 31.7283C32.4422 31.1319 31.9061 30.5354 31.3701 29.939C30.827 29.3356 30.291 28.7392 29.7549 28.1358C28.7942 27.0677 27.8334 25.9997 26.8727 24.9316C26.1417 24.1202 25.4177 23.3157 24.6867 22.5042C24.1088 21.8592 23.531 21.2212 22.9532 20.5762C22.9392 20.5623 22.9253 20.5415 22.9044 20.5068L22.8975 20.5138Z" fill="#8187C2"/>
<path d="M25.9538 9.86869H25.7589C24.4918 9.86869 23.2178 9.86869 21.9507 9.86869C21.8393 9.86869 21.7627 9.84095 21.6862 9.75079C20.7185 8.5579 19.7508 7.37194 18.7831 6.18599C17.8502 5.04858 16.9242 3.91117 15.9914 2.76683C15.6781 2.38538 15.3718 2.00393 15.0654 1.62248C15.1211 1.567 15.1768 1.58781 15.2186 1.58781C16.4926 1.58781 17.7666 1.58781 19.0476 1.58781C19.166 1.58781 19.2356 1.62942 19.3052 1.71264C20.3913 3.04424 21.4773 4.37584 22.5634 5.70051C23.5728 6.94195 24.5893 8.18339 25.5987 9.42482C25.7101 9.5566 25.8146 9.68837 25.9538 9.86176V9.86869Z" fill="#9873B4"/>
<path d="M29.47 31.8047C28.9131 31.7839 28.4049 31.8047 27.8897 31.7769C27.4859 31.7561 27.0821 31.77 26.6853 31.7631C26.2745 31.7631 25.8708 31.7631 25.46 31.7631C25.3625 31.7631 25.2929 31.7353 25.2233 31.659C24.2278 30.4731 23.2252 29.2871 22.2297 28.0942C21.3804 27.0886 20.538 26.076 19.6886 25.0704C19.431 24.7652 19.1734 24.4601 18.9158 24.1549C18.895 24.1272 18.8602 24.0925 18.8671 24.0717C18.8741 24.0162 18.9298 24.037 18.9715 24.037C20.0019 24.037 21.0323 24.037 22.0557 24.0509C22.2993 24.0509 22.5499 24.0648 22.7936 24.0648C22.905 24.0648 22.9816 24.0925 23.0582 24.1827C23.9145 25.2091 24.7777 26.2217 25.6341 27.2481C26.553 28.3439 27.4789 29.4397 28.3979 30.5355C28.746 30.9447 29.0871 31.3608 29.47 31.8047Z" fill="#9873B4"/>
<path d="M62.7957 3.48047C62.8723 3.75789 62.8166 4.02837 62.754 4.29191C62.4476 5.5819 61.6401 6.42108 60.3312 6.69157C59.0224 6.96205 57.7832 6.44189 57.0452 5.27674C56.7041 4.72884 56.5509 4.12546 56.5997 3.48047C58.6673 3.48047 60.728 3.48047 62.7957 3.48047Z" fill="#A78CC2"/>
<path d="M62.7957 3.48082C60.728 3.48082 58.6673 3.48082 56.5996 3.48082C56.6344 2.81502 56.8711 2.22551 57.2888 1.71229C57.7762 1.11584 58.4027 0.734395 59.1685 0.609557C60.3381 0.422301 61.3267 0.782943 62.0995 1.68455C62.5311 2.1839 62.7609 2.76647 62.8026 3.42534C62.8026 3.43921 62.8026 3.46001 62.8026 3.47388L62.7957 3.48082Z" fill="#9873B4"/>
</svg>
