<svg width="55" height="55" viewBox="0 0 55 55" fill="none" xmlns="http://www.w3.org/2000/svg">
<path d="M26.8162 8.15277C26.563 8.09758 26.3136 8.02633 26.0695 7.93944C25.8301 7.83105 25.5985 7.70631 25.3762 7.56611C25.16 7.4119 24.9551 7.24259 24.7629 7.05944C24.0138 6.30944 23.593 5.29278 23.593 4.23277C23.593 3.17277 24.0138 2.15611 24.7629 1.40611C24.9551 1.22296 25.16 1.05365 25.3762 0.899441C25.5932 0.757607 25.8258 0.641283 26.0695 0.552775C26.3086 0.44498 26.5591 0.364472 26.8162 0.312775C27.6561 0.149482 28.5263 0.259837 29.2989 0.62763C30.0715 0.995424 30.7057 1.60127 31.1086 2.35618C31.5114 3.1111 31.6615 3.97529 31.5369 4.82183C31.4123 5.66837 31.0195 6.45264 30.4162 7.05944C29.6646 7.80685 28.6495 8.22917 27.5895 8.23544C27.3295 8.23575 27.0702 8.20803 26.8162 8.15277ZM26.8162 20.1554C26.563 20.1003 26.3136 20.029 26.0695 19.9421C25.8301 19.8337 25.5985 19.709 25.3762 19.5688C25.16 19.4146 24.9551 19.2453 24.7629 19.0621C24.0138 18.3121 23.593 17.2954 23.593 16.2354C23.593 15.1754 24.0138 14.1588 24.7629 13.4088C24.9551 13.2256 25.16 13.0563 25.3762 12.9021C25.5932 12.7603 25.8258 12.644 26.0695 12.5554C26.3086 12.4476 26.5591 12.3671 26.8162 12.3154C27.3262 12.2087 27.8528 12.2087 28.3629 12.3154C28.62 12.3671 28.8704 12.4476 29.1095 12.5554C29.3532 12.644 29.5858 12.7603 29.8029 12.9021C30.019 13.0563 30.224 13.2256 30.4162 13.4088C31.1653 14.1588 31.586 15.1754 31.586 16.2354C31.586 17.2954 31.1653 18.3121 30.4162 19.0621C30.224 19.2453 30.019 19.4146 29.8029 19.5688C29.5806 19.709 29.3489 19.8337 29.1095 19.9421C28.8654 20.029 28.616 20.1003 28.3629 20.1554C27.8528 20.2621 27.3262 20.2621 26.8162 20.1554ZM26.8162 30.8194C26.563 30.7643 26.3136 30.693 26.0695 30.6061C25.8301 30.4977 25.5985 30.373 25.3762 30.2328C25.16 30.0786 24.9551 29.9093 24.7629 29.7261C24.5734 29.5396 24.4036 29.334 24.2562 29.1128C24.116 28.8905 23.9912 28.6588 23.8829 28.4194C23.796 28.1753 23.7247 27.9259 23.6695 27.6728C23.6153 27.4195 23.5885 27.1611 23.5895 26.9021C23.5896 26.3765 23.6933 25.8562 23.8946 25.3707C24.096 24.8852 24.391 24.4442 24.7629 24.0728C24.9551 23.8896 25.16 23.7203 25.3762 23.5661C25.5985 23.4259 25.8301 23.3012 26.0695 23.1928C26.3136 23.1059 26.563 23.0346 26.8162 22.9794C27.3957 22.8652 27.9934 22.8808 28.5662 23.025C29.139 23.1693 29.6728 23.4386 30.1291 23.8136C30.5855 24.1886 30.9531 24.6601 31.2056 25.1941C31.4581 25.7281 31.5892 26.3114 31.5895 26.9021C31.5907 27.162 31.5639 27.4213 31.5095 27.6754C31.4578 27.9326 31.3773 28.183 31.2695 28.4221C31.181 28.6658 31.0647 28.8984 30.9228 29.1154C30.7754 29.3367 30.6057 29.5422 30.4162 29.7288C30.224 29.9119 30.019 30.0812 29.8029 30.2354C29.5806 30.3756 29.3489 30.5004 29.1095 30.6088C28.8654 30.6957 28.616 30.7669 28.3629 30.8221C27.8528 30.9288 27.3262 30.9288 26.8162 30.8221V30.8194ZM25.6962 39.4621C25.2112 38.9528 24.9352 38.2799 24.9229 37.5768C24.9312 36.8681 25.2075 36.1888 25.6962 35.6754C26.01 35.3729 26.3915 35.1498 26.8089 35.0246C27.2264 34.8993 27.6677 34.8756 28.0962 34.9554C28.2728 34.9802 28.4441 35.0342 28.6028 35.1154C28.7668 35.1685 28.9202 35.2497 29.0562 35.3554C29.2162 35.4621 29.3495 35.5688 29.4829 35.6754C29.9716 36.1888 30.2478 36.8681 30.2562 37.5768C30.2458 38.2827 29.9697 38.9588 29.4829 39.4701C29.3495 39.5768 29.2162 39.6834 29.0562 39.7901C28.9202 39.8958 28.7668 39.9771 28.6028 40.0301C28.4441 40.1113 28.2728 40.1654 28.0962 40.1901C27.9289 40.2211 27.7595 40.2389 27.5895 40.2434C26.8825 40.2309 26.2063 39.9519 25.6962 39.4621ZM26.8162 48.7421C26.5781 48.6411 26.361 48.4964 26.1762 48.3154C25.9866 48.1378 25.8406 47.9188 25.7495 47.6754C25.643 47.4316 25.5885 47.1682 25.5895 46.9021C25.5896 46.6395 25.6415 46.3795 25.7421 46.137C25.8428 45.8945 25.9903 45.6742 26.1762 45.4888C26.361 45.3078 26.5781 45.1631 26.8162 45.0621C27.0604 44.9566 27.3235 44.9021 27.5895 44.9021C27.8555 44.9021 28.1187 44.9566 28.3629 45.0621C28.601 45.1631 28.8181 45.3078 29.0029 45.4888C29.1838 45.6736 29.3285 45.8907 29.4295 46.1288C29.535 46.3729 29.5895 46.6361 29.5895 46.9021C29.5895 47.1681 29.535 47.4313 29.4295 47.6754C29.3285 47.9136 29.1838 48.1306 29.0029 48.3154C28.8181 48.4964 28.601 48.6411 28.3629 48.7421C28.1182 48.8461 27.8553 48.9005 27.5895 48.9021C27.3234 48.9032 27.06 48.8487 26.8162 48.7421ZM26.6562 54.0221C26.5283 53.9035 26.4266 53.7594 26.3577 53.5991C26.2889 53.4388 26.2543 53.2659 26.2562 53.0914C26.2535 52.9161 26.2877 52.7422 26.3567 52.5809C26.4256 52.4197 26.5276 52.2747 26.6562 52.1554C26.9054 51.9111 27.2405 51.7743 27.5895 51.7743C27.9385 51.7743 28.2736 51.9111 28.5229 52.1554C28.6514 52.2747 28.7535 52.4197 28.8224 52.5809C28.8913 52.7422 28.9255 52.9161 28.9228 53.0914C28.9251 53.2663 28.8907 53.4398 28.8218 53.6005C28.7529 53.7613 28.6511 53.9058 28.5229 54.0248C28.4039 54.153 28.2594 54.2549 28.0986 54.3238C27.9378 54.3927 27.7644 54.4271 27.5895 54.4248C27.4144 54.4267 27.2409 54.3919 27.0801 54.3225C26.9193 54.2532 26.7749 54.1508 26.6562 54.0221ZM2.09618 19.0621C1.34582 18.3127 0.923785 17.2959 0.922852 16.2354C0.928411 15.1759 1.34975 14.1608 2.09618 13.4088C2.86165 12.6895 3.8725 12.2892 4.92285 12.2892C5.9732 12.2892 6.98405 12.6895 7.74952 13.4088C8.49595 14.1608 8.91729 15.1759 8.92285 16.2354C8.92192 17.2959 8.49988 18.3127 7.74952 19.0621C7.55728 19.2453 7.35233 19.4146 7.13619 19.5688C6.91917 19.7106 6.68653 19.8269 6.44285 19.9154C6.20377 20.0232 5.9533 20.1037 5.69618 20.1554C5.44203 20.2098 5.18275 20.2366 4.92285 20.2354C3.86234 20.2345 2.84561 19.8125 2.09618 19.0621ZM47.4295 19.0621C46.6831 18.3101 46.2617 17.295 46.2562 16.2354C46.255 15.9755 46.2818 15.7163 46.3362 15.4621C46.3914 15.2089 46.4626 14.9595 46.5495 14.7154C46.6579 14.476 46.7826 14.2444 46.9229 14.0221C47.0771 13.806 47.2464 13.601 47.4295 13.4088C47.6218 13.2256 47.8267 13.0563 48.0429 12.9021C48.2599 12.7603 48.4925 12.644 48.7362 12.5554C48.9753 12.4476 49.2257 12.3671 49.4829 12.3154C49.9929 12.2087 50.5195 12.2087 51.0295 12.3154C51.2866 12.3671 51.5371 12.4476 51.7762 12.5554C52.0199 12.644 52.2525 12.7603 52.4695 12.9021C52.6857 13.0563 52.8906 13.2256 53.0829 13.4088C53.266 13.601 53.4353 13.806 53.5895 14.0221C53.7314 14.2391 53.8477 14.4718 53.9362 14.7154C54.044 14.9545 54.1245 15.205 54.1762 15.4621C54.2305 15.7163 54.2574 15.9755 54.2562 16.2354C54.2553 17.2959 53.8332 18.3127 53.0829 19.0621C52.8906 19.2453 52.6857 19.4146 52.4695 19.5688C52.2472 19.709 52.0156 19.8337 51.7762 19.9421C51.5321 20.029 51.2827 20.1003 51.0295 20.1554C50.7751 20.2084 50.516 20.2352 50.2562 20.2354C49.1966 20.2299 48.1816 19.8085 47.4295 19.0621ZM49.7495 29.5154C49.5729 29.4907 49.4016 29.4366 49.2429 29.3554C49.0729 29.2972 48.9115 29.2164 48.7629 29.1154C48.6231 29.017 48.4896 28.9101 48.3629 28.7954C48.2482 28.6687 48.1413 28.5352 48.0429 28.3954C47.9418 28.2468 47.8611 28.0854 47.8029 27.9154C47.7253 27.7627 47.6714 27.599 47.6429 27.4301C47.6119 27.2539 47.5941 27.0756 47.5895 26.8968C47.6012 26.1927 47.8773 25.5187 48.3629 25.0088L48.7629 24.6888C48.9115 24.5878 49.0729 24.5071 49.2429 24.4488C49.4016 24.3676 49.5729 24.3135 49.7495 24.2888C50.0826 24.2087 50.4298 24.2087 50.7629 24.2888C50.9395 24.3135 51.1107 24.3676 51.2695 24.4488C51.4334 24.5018 51.5868 24.583 51.7229 24.6888C51.8829 24.7954 52.0162 24.9021 52.1495 25.0088C52.6351 25.5187 52.9112 26.1927 52.9229 26.8968C52.9183 27.0756 52.9005 27.2539 52.8695 27.4301C52.8405 27.5972 52.7866 27.759 52.7095 27.9101C52.6512 28.0801 52.5705 28.2415 52.4695 28.3901L52.1495 28.7901C52.0189 28.9114 51.8759 29.0187 51.7229 29.1101C51.5868 29.2158 51.4334 29.2971 51.2695 29.3501C51.1107 29.4313 50.9395 29.4854 50.7629 29.5101C50.5956 29.541 50.4262 29.5589 50.2562 29.5634C50.0863 29.5606 49.9169 29.5446 49.7495 29.5154ZM3.02952 28.7954C2.5433 28.2848 2.2672 27.6098 2.25618 26.9048C2.26586 26.1979 2.54206 25.5208 3.02952 25.0088C3.40452 24.6388 3.88071 24.3881 4.39801 24.2884C4.91532 24.1888 5.45056 24.2446 5.93618 24.4488C6.26253 24.5776 6.56123 24.7677 6.81618 25.0088C7.30365 25.5208 7.57984 26.1979 7.58952 26.9048C7.57917 27.6107 7.30302 28.2868 6.81618 28.7981C6.30487 29.2849 5.62879 29.5611 4.92285 29.5714C4.21655 29.5604 3.54042 29.2833 3.02952 28.7954ZM48.8429 36.3154C48.5607 36.0357 48.3691 35.6777 48.2931 35.2878C48.217 34.8978 48.2599 34.494 48.4162 34.1288C48.5172 33.8907 48.6619 33.6736 48.8429 33.4888C49.1245 33.2097 49.4824 33.0203 49.8716 32.9444C50.2607 32.8684 50.6636 32.9094 51.0295 33.0621C51.2676 33.1631 51.4847 33.3078 51.6695 33.4888C51.8505 33.6736 51.9952 33.8907 52.0962 34.1288C52.2525 34.494 52.2954 34.8978 52.2193 35.2878C52.1432 35.6777 51.9517 36.0357 51.6695 36.3154C51.4847 36.4964 51.2676 36.6411 51.0295 36.7421C50.6643 36.8984 50.2605 36.9413 49.8705 36.8652C49.4806 36.7891 49.1225 36.5976 48.8429 36.3154ZM3.50952 36.3154C3.31994 36.1378 3.17393 35.9188 3.08285 35.6754C2.97628 35.4316 2.92179 35.1682 2.92285 34.9021C2.92447 34.6363 2.97885 34.3734 3.08285 34.1288C3.17393 33.8855 3.31994 33.6664 3.50952 33.4888C3.89225 33.1292 4.39768 32.929 4.92285 32.929C5.44803 32.929 5.95345 33.1292 6.33618 33.4888C6.51715 33.6736 6.66188 33.8907 6.76285 34.1288C6.86685 34.3734 6.92123 34.6363 6.92285 34.9021C6.92391 35.1682 6.86942 35.4316 6.76285 35.6754C6.66188 35.9136 6.51715 36.1306 6.33618 36.3154C6.15086 36.5015 5.9306 36.6492 5.68807 36.7499C5.44553 36.8507 5.18548 36.9026 4.92285 36.9026C4.66022 36.9026 4.40017 36.8507 4.15764 36.7499C3.9151 36.6492 3.69485 36.5015 3.50952 36.3154ZM49.7495 43.4621C49.5828 43.4059 49.4351 43.3043 49.3229 43.1688C49.1946 43.0498 49.0928 42.9053 49.0239 42.7445C48.955 42.5838 48.9206 42.4103 48.9229 42.2354C48.9202 42.0601 48.9544 41.8862 49.0233 41.7249C49.0922 41.5637 49.1943 41.4187 49.3229 41.2994C49.5721 41.0551 49.9072 40.9183 50.2562 40.9183C50.6052 40.9183 50.9403 41.0551 51.1895 41.2994C51.3181 41.4187 51.4201 41.5637 51.4891 41.7249C51.558 41.8862 51.5922 42.0601 51.5895 42.2354C51.5918 42.4103 51.5574 42.5838 51.4885 42.7445C51.4196 42.9053 51.3177 43.0498 51.1895 43.1688C51.0706 43.297 50.926 43.3989 50.7653 43.4678C50.6045 43.5367 50.4311 43.5711 50.2562 43.5688C50.0812 43.5747 49.9073 43.5381 49.7495 43.4621ZM3.98952 43.1688C3.86129 43.0498 3.75943 42.9053 3.69053 42.7445C3.62163 42.5838 3.58722 42.4103 3.58952 42.2354C3.58685 42.0601 3.62108 41.8862 3.68999 41.7249C3.7589 41.5637 3.86095 41.4187 3.98952 41.2994C4.23876 41.0551 4.57385 40.9183 4.92285 40.9183C5.27185 40.9183 5.60695 41.0551 5.85618 41.2994C5.98475 41.4187 6.0868 41.5637 6.15572 41.7249C6.22463 41.8862 6.25886 42.0601 6.25619 42.2354C6.25848 42.4103 6.22407 42.5838 6.15517 42.7445C6.08627 42.9053 5.98442 43.0498 5.85618 43.1688C5.73723 43.297 5.59271 43.3989 5.43194 43.4678C5.27117 43.5367 5.09774 43.5711 4.92285 43.5688C4.74796 43.5711 4.57453 43.5367 4.41376 43.4678C4.253 43.3989 4.10847 43.297 3.98952 43.1688ZM15.4829 14.1554C15.2257 14.1037 14.9753 14.0232 14.7362 13.9154C14.4902 13.8325 14.2568 13.7158 14.0429 13.5688C13.8216 13.4214 13.616 13.2516 13.4295 13.0621C12.6831 12.3101 12.2617 11.295 12.2562 10.2354C12.2617 9.17586 12.6831 8.16082 13.4295 7.40877C14.195 6.68954 15.2058 6.28915 16.2562 6.28915C17.3065 6.28915 18.3174 6.68954 19.0829 7.40877C19.8319 8.15878 20.2527 9.17544 20.2527 10.2354C20.2527 11.2954 19.8319 12.3121 19.0829 13.0621C18.8906 13.2453 18.6857 13.4146 18.4695 13.5688C18.2525 13.7106 18.0199 13.8269 17.7762 13.9154C17.5371 14.0232 17.2866 14.1037 17.0295 14.1554C16.5195 14.2621 15.9929 14.2621 15.4829 14.1554ZM38.1495 14.1554C37.8924 14.1037 37.6419 14.0232 37.4029 13.9154C37.1592 13.8269 36.9265 13.7106 36.7095 13.5688C36.4934 13.4146 36.2884 13.2453 36.0962 13.0621C35.913 12.8699 35.7437 12.6649 35.5895 12.4488C35.4493 12.2265 35.3246 11.9948 35.2162 11.7554C35.1293 11.5113 35.058 11.2619 35.0029 11.0088C34.9485 10.7546 34.9217 10.4953 34.9229 10.2354C34.9284 9.17586 35.3498 8.16082 36.0962 7.40877C36.2884 7.22563 36.4934 7.05631 36.7095 6.90211C36.9265 6.76027 37.1592 6.64395 37.4029 6.55544C37.6419 6.44765 37.8924 6.36714 38.1495 6.31544C38.6596 6.20872 39.1862 6.20872 39.6962 6.31544C39.9533 6.36714 40.2038 6.44765 40.4429 6.55544C40.6865 6.64395 40.9192 6.76027 41.1362 6.90211C41.3523 7.05631 41.5573 7.22563 41.7495 7.40877C42.496 8.16082 42.9173 9.17586 42.9229 10.2354C42.924 10.4953 42.8972 10.7546 42.8429 11.0088C42.7877 11.2619 42.7164 11.5113 42.6295 11.7554C42.5211 11.9948 42.3964 12.2265 42.2562 12.4488C42.102 12.6649 41.9327 12.8699 41.7495 13.0621C41.5573 13.2453 41.3523 13.4146 41.1362 13.5688C40.9192 13.7106 40.6865 13.8269 40.4429 13.9154C40.2038 14.0232 39.9533 14.1037 39.6962 14.1554C39.1861 14.2621 38.6596 14.2621 38.1495 14.1554ZM15.4829 25.4888C15.2297 25.4336 14.9803 25.3623 14.7362 25.2754C14.4968 25.167 14.2651 25.0423 14.0429 24.9021C13.8216 24.7547 13.616 24.5849 13.4295 24.3954C12.6831 23.6434 12.2617 22.6284 12.2562 21.5688C12.2571 20.5083 12.6792 19.4915 13.4295 18.7421C14.195 18.0229 15.2058 17.6225 16.2562 17.6225C17.3065 17.6225 18.3174 18.0229 19.0829 18.7421C19.8319 19.4921 20.2527 20.5088 20.2527 21.5688C20.2527 22.6288 19.8319 23.6454 19.0829 24.3954C18.3308 25.1419 17.3158 25.5632 16.2562 25.5688C15.9963 25.57 15.737 25.5431 15.4829 25.4888ZM38.1495 25.4888C37.8924 25.4371 37.6419 25.3566 37.4029 25.2488C37.1592 25.1603 36.9265 25.0439 36.7095 24.9021C36.4934 24.7479 36.2884 24.5786 36.0962 24.3954C35.913 24.2032 35.7437 23.9983 35.5895 23.7821C35.4493 23.5598 35.3246 23.3282 35.2162 23.0888C35.1293 22.8447 35.058 22.5953 35.0029 22.3421C34.9485 22.088 34.9217 21.8287 34.9229 21.5688C34.9284 20.5092 35.3498 19.4942 36.0962 18.7421C36.2884 18.559 36.4934 18.3896 36.7095 18.2354C36.9265 18.0936 37.1592 17.9773 37.4029 17.8888C37.6419 17.781 37.8924 17.7005 38.1495 17.6488C38.6596 17.5421 39.1862 17.5421 39.6962 17.6488C39.9533 17.7005 40.2038 17.781 40.4429 17.8888C40.6865 17.9773 40.9192 18.0936 41.1362 18.2354C41.3523 18.3896 41.5573 18.559 41.7495 18.7421C42.496 19.4942 42.9173 20.5092 42.9229 21.5688C42.924 21.8287 42.8972 22.088 42.8429 22.3421C42.7877 22.5953 42.7164 22.8447 42.6295 23.0888C42.5211 23.3282 42.3964 23.5598 42.2562 23.7821C42.102 23.9983 41.9327 24.2032 41.7495 24.3954C41.5573 24.5786 41.3523 24.7479 41.1362 24.9021C40.9192 25.0439 40.6865 25.1603 40.4429 25.2488C40.2038 25.3566 39.9533 25.4371 39.6962 25.4888C39.1861 25.5954 38.6596 25.5954 38.1495 25.4888ZM15.2429 34.6914C14.9137 34.5706 14.6138 34.3816 14.3629 34.1368C14.1275 33.8774 13.9381 33.5798 13.8029 33.2568C13.6655 32.9345 13.593 32.5884 13.5895 32.2381C13.5999 31.5322 13.876 30.8561 14.3629 30.3448C14.8785 29.8689 15.5545 29.6047 16.2562 29.6047C16.9579 29.6047 17.6338 29.8689 18.1495 30.3448C18.6364 30.8561 18.9125 31.5322 18.9229 32.2381C18.9186 32.5866 18.8462 32.9309 18.7095 33.2514C18.5742 33.5745 18.3849 33.8721 18.1495 34.1314C17.6382 34.6183 16.9621 34.8944 16.2562 34.9048C15.9077 34.9006 15.5634 34.8281 15.2429 34.6914ZM37.0295 34.1368C36.5414 33.6241 36.2652 32.9459 36.2562 32.2381C36.2665 31.5322 36.5427 30.8561 37.0295 30.3448C37.5452 29.8689 38.2212 29.6047 38.9229 29.6047C39.6245 29.6047 40.3005 29.8689 40.8162 30.3448C41.303 30.8561 41.5792 31.5322 41.5895 32.2381C41.585 32.417 41.5671 32.5952 41.5362 32.7714C41.5072 32.9385 41.4532 33.1003 41.3762 33.2514C41.3231 33.4153 41.2419 33.5688 41.1362 33.7048C41.0295 33.8648 40.9229 33.9981 40.8162 34.1314C40.3049 34.6183 39.6288 34.8944 38.9229 34.9048C38.2176 34.8959 37.5417 34.6217 37.0295 34.1368ZM14.8429 42.3154C14.6619 42.1306 14.5172 41.9136 14.4162 41.6754C14.3096 41.4316 14.2551 41.1682 14.2562 40.9021C14.2578 40.6363 14.3122 40.3734 14.4162 40.1288C14.5172 39.8907 14.6619 39.6736 14.8429 39.4888C15.0276 39.3078 15.2447 39.1631 15.4829 39.0621C15.727 38.9566 15.9902 38.9021 16.2562 38.9021C16.5222 38.9021 16.7854 38.9566 17.0295 39.0621C17.2676 39.1631 17.4847 39.3078 17.6695 39.4888C17.8554 39.6742 18.0029 39.8945 18.1036 40.137C18.2042 40.3795 18.2561 40.6395 18.2562 40.9021C18.2572 41.1682 18.2028 41.4316 18.0962 41.6754C17.9952 41.9136 17.8505 42.1306 17.6695 42.3154C17.4842 42.5015 17.2639 42.6492 17.0214 42.7499C16.7789 42.8507 16.5188 42.9026 16.2562 42.9026C15.9936 42.9026 15.7335 42.8507 15.491 42.7499C15.2484 42.6492 15.0282 42.5015 14.8429 42.3154ZM38.1495 42.7421C37.9114 42.6411 37.6943 42.4964 37.5095 42.3154C37.3199 42.1378 37.1739 41.9188 37.0829 41.6754C36.9773 41.4313 36.9229 41.1681 36.9229 40.9021C36.9229 40.6361 36.9773 40.3729 37.0829 40.1288C37.1838 39.8907 37.3285 39.6736 37.5095 39.4888C37.6943 39.3078 37.9114 39.1631 38.1495 39.0621C38.3937 38.9566 38.6569 38.9021 38.9229 38.9021C39.1888 38.9021 39.452 38.9566 39.6962 39.0621C39.9343 39.1631 40.1514 39.3078 40.3362 39.4888C40.5172 39.6736 40.6619 39.8907 40.7629 40.1288C40.8684 40.3729 40.9228 40.6361 40.9228 40.9021C40.9228 41.1681 40.8684 41.4313 40.7629 41.6754C40.6619 41.9136 40.5172 42.1306 40.3362 42.3154C40.1507 42.5013 39.9304 42.6488 39.6879 42.7495C39.4454 42.8502 39.1854 42.902 38.9229 42.9021C38.6567 42.9032 38.3934 42.8487 38.1495 42.7421ZM15.3229 48.5021C15.1946 48.3832 15.0928 48.2386 15.0239 48.0779C14.955 47.9171 14.9206 47.7437 14.9229 47.5688C14.9202 47.3934 14.9544 47.2195 15.0233 47.0582C15.0922 46.897 15.1943 46.752 15.3229 46.6328C15.5721 46.3885 15.9072 46.2516 16.2562 46.2516C16.6052 46.2516 16.9403 46.3885 17.1895 46.6328C17.3181 46.752 17.4201 46.897 17.489 47.0582C17.558 47.2195 17.5922 47.3934 17.5895 47.5688C17.5918 47.7437 17.5574 47.9171 17.4885 48.0779C17.4196 48.2386 17.3177 48.3832 17.1895 48.5021C17.0706 48.6303 16.926 48.7322 16.7653 48.8011C16.6045 48.87 16.4311 48.9044 16.2562 48.9021C16.0813 48.9044 15.9079 48.87 15.7471 48.8011C15.5863 48.7322 15.4418 48.6303 15.3229 48.5021ZM38.4162 48.7954C38.2495 48.7392 38.1017 48.6376 37.9895 48.5021C37.854 48.3899 37.7524 48.2422 37.6962 48.0754C37.6202 47.9177 37.5836 47.7438 37.5895 47.5688C37.5868 47.3934 37.6211 47.2195 37.69 47.0582C37.7589 46.897 37.861 46.752 37.9895 46.6328C38.2388 46.3885 38.5738 46.2516 38.9229 46.2516C39.2719 46.2516 39.6069 46.3885 39.8562 46.6328C39.9848 46.752 40.0868 46.897 40.1557 47.0582C40.2246 47.2195 40.2589 47.3934 40.2562 47.5688C40.2621 47.7438 40.2255 47.9177 40.1495 48.0754C40.0933 48.2422 39.9917 48.3899 39.8562 48.5021C39.7372 48.6303 39.5927 48.7322 39.4319 48.8011C39.2712 48.87 39.0977 48.9044 38.9229 48.9021C38.7478 48.9081 38.574 48.8715 38.4162 48.7954Z" fill="url(#paint0_linear_453_3435)"/>
<defs>
<linearGradient id="paint0_linear_453_3435" x1="0.922852" y1="27.3321" x2="57.6829" y2="27.3321" gradientUnits="userSpaceOnUse">
<stop stop-color="#767EE5"/>
<stop offset="1" stop-color="#9966CC"/>
</linearGradient>
</defs>
</svg>
