<svg width="52" height="53" viewBox="0 0 52 53" fill="none" xmlns="http://www.w3.org/2000/svg">
<path d="M47.1978 0.96875H4.53153C2.18529 0.96875 0.264648 2.88939 0.264648 5.23563V20.1688C0.264648 22.5144 2.18529 24.4356 4.53153 24.4356H6.66465V7.36875H10.9315V24.4356H15.1978V7.36875H19.4646V24.4356H47.1978C49.544 24.4356 51.4646 22.5144 51.4646 20.1688V5.23563C51.4646 2.88939 49.544 0.96875 47.1978 0.96875ZM25.8646 11.6356C25.5844 11.6358 25.3069 11.5807 25.048 11.4735C24.7891 11.3664 24.5538 11.2092 24.3557 11.011C24.1576 10.8128 24.0005 10.5775 23.8934 10.3186C23.7863 10.0596 23.7313 9.7821 23.7315 9.50187C23.7315 8.32299 24.6851 7.36875 25.8646 7.36875C27.0442 7.36875 27.9978 8.32299 27.9978 9.50187C27.998 9.7821 27.943 10.0596 27.8359 10.3186C27.7288 10.5775 27.5717 10.8128 27.3736 11.011C27.1755 11.2092 26.9402 11.3664 26.6813 11.4735C26.4224 11.5807 26.1449 11.6358 25.8646 11.6356ZM34.3978 11.6356C34.1176 11.6357 33.8401 11.5806 33.5812 11.4734C33.3223 11.3662 33.0871 11.209 32.889 11.0108C32.6909 10.8127 32.5338 10.5774 32.4267 10.3185C32.3195 10.0596 32.2645 9.78207 32.2646 9.50187C32.2645 9.2217 32.3195 8.94424 32.4267 8.68536C32.5338 8.42648 32.6909 8.19126 32.889 7.99315C33.0872 7.79504 33.3224 7.63792 33.5813 7.53078C33.8401 7.42364 34.1176 7.36858 34.3978 7.36875C34.678 7.36858 34.9555 7.42364 35.2144 7.53077C35.4733 7.6379 35.7085 7.79501 35.9067 7.99311C36.1049 8.19122 36.2621 8.42643 36.3693 8.68531C36.4765 8.94419 36.5316 9.22167 36.5315 9.50187C36.5317 9.78213 36.4766 10.0597 36.3694 10.3186C36.2623 10.5776 36.1051 10.8129 35.9069 11.011C35.7088 11.2092 35.4735 11.3664 35.2145 11.4736C34.9556 11.5807 34.678 11.6358 34.3978 11.6356ZM42.9315 11.6356C42.6513 11.6358 42.3737 11.5807 42.1148 11.4736C41.8558 11.3664 41.6205 11.2092 41.4224 11.011C41.2242 10.8129 41.067 10.5776 40.9598 10.3186C40.8527 10.0597 40.7976 9.78213 40.7978 9.50187C40.7977 9.22167 40.8528 8.94419 40.96 8.68531C41.0672 8.42643 41.2244 8.19122 41.4226 7.99311C41.6207 7.79501 41.856 7.6379 42.1149 7.53077C42.3738 7.42364 42.6513 7.36858 42.9315 7.36875C43.2117 7.36858 43.4892 7.42364 43.748 7.53078C44.0069 7.63792 44.2421 7.79504 44.4402 7.99315C44.6384 8.19126 44.7955 8.42648 44.9026 8.68536C45.0098 8.94424 45.0648 9.2217 45.0646 9.50187C45.0648 9.78207 45.0098 10.0596 44.9026 10.3185C44.7955 10.5774 44.6384 10.8127 44.4403 11.0108C44.2422 11.209 44.007 11.3662 43.7481 11.4734C43.4892 11.5806 43.2117 11.6357 42.9315 11.6356ZM47.1978 28.7019H4.53153C2.18529 28.7019 0.264648 30.6231 0.264648 32.9688V47.9019C0.264648 50.2481 2.18529 52.1687 4.53153 52.1687H6.66465V35.1019H10.9315V52.1687H15.1978V35.1019H19.4646V52.1687H47.1978C49.544 52.1687 51.4646 50.2481 51.4646 47.9019V32.9688C51.4646 30.6231 49.544 28.7019 47.1978 28.7019ZM25.8646 39.3687C25.5845 39.369 25.307 39.314 25.048 39.2069C24.7891 39.0998 24.5539 38.9427 24.3557 38.7445C24.1576 38.5464 24.0005 38.3112 23.8934 38.0522C23.7863 37.7933 23.7313 37.5158 23.7315 37.2356C23.7315 36.0561 24.6851 35.1019 25.8646 35.1019C27.0442 35.1019 27.9978 36.0561 27.9978 37.2356C27.998 37.5158 27.943 37.7933 27.8359 38.0522C27.7288 38.3112 27.5717 38.5464 27.3736 38.7445C27.1754 38.9427 26.9402 39.0998 26.6813 39.2069C26.4223 39.314 26.1448 39.369 25.8646 39.3687ZM34.3978 39.3687C34.1176 39.3689 33.8401 39.3139 33.5813 39.2067C33.3224 39.0996 33.0872 38.9425 32.889 38.7443C32.6909 38.5462 32.5338 38.311 32.4267 38.0521C32.3195 37.7933 32.2645 37.5158 32.2646 37.2356C32.2645 36.9554 32.3195 36.6779 32.4267 36.419C32.5338 36.1601 32.6909 35.9248 32.889 35.7267C33.0871 35.5285 33.3223 35.3713 33.5812 35.2641C33.8401 35.1569 34.1176 35.1018 34.3978 35.1019C34.678 35.1017 34.9556 35.1568 35.2145 35.264C35.4735 35.3711 35.7088 35.5283 35.9069 35.7265C36.1051 35.9246 36.2623 36.1599 36.3694 36.4189C36.4766 36.6778 36.5317 36.9554 36.5315 37.2356C36.5316 37.5158 36.4765 37.7933 36.3693 38.0522C36.2621 38.3111 36.1049 38.5463 35.9067 38.7444C35.7085 38.9425 35.4733 39.0996 35.2144 39.2067C34.9555 39.3139 34.678 39.3689 34.3978 39.3687ZM42.9315 39.3687C42.6513 39.3689 42.3738 39.3139 42.1149 39.2067C41.856 39.0996 41.6207 38.9425 41.4226 38.7444C41.2244 38.5463 41.0672 38.3111 40.96 38.0522C40.8528 37.7933 40.7977 37.5158 40.7978 37.2356C40.7976 36.9554 40.8527 36.6778 40.9598 36.4189C41.067 36.1599 41.2242 35.9246 41.4224 35.7265C41.6205 35.5283 41.8558 35.3711 42.1148 35.264C42.3737 35.1568 42.6513 35.1017 42.9315 35.1019C43.2117 35.1018 43.4892 35.1569 43.7481 35.2641C44.007 35.3713 44.2422 35.5285 44.4403 35.7267C44.6384 35.9248 44.7955 36.1601 44.9026 36.419C45.0098 36.6779 45.0648 36.9554 45.0646 37.2356C45.0648 37.5158 45.0098 37.7933 44.9026 38.0521C44.7955 38.311 44.6384 38.5462 44.4402 38.7443C44.2421 38.9425 44.0069 39.0996 43.748 39.2067C43.4892 39.3139 43.2117 39.3689 42.9315 39.3687Z" fill="url(#paint0_linear_453_3443)"/>
<defs>
<linearGradient id="paint0_linear_453_3443" x1="0.264648" y1="26.5687" x2="54.7543" y2="26.5687" gradientUnits="userSpaceOnUse">
<stop stop-color="#767EE5"/>
<stop offset="1" stop-color="#9966CC"/>
</linearGradient>
</defs>
</svg>
