<svg width="296" height="36" viewBox="0 0 296 36" fill="none" xmlns="http://www.w3.org/2000/svg">
<path opacity="0.9" d="M277.777 18.9178C277.373 18.9477 276.965 18.9684 276.57 19.0132C276.313 19.0411 276.201 18.9599 276.028 18.9175C275.97 18.9028 275.908 18.8733 275.855 18.877C275.455 18.9069 275.056 18.9406 274.656 18.9742C274.535 19.0464 274.46 19.1426 274.272 19.1779C274.089 19.2113 273.873 19.2115 273.669 19.2283C273.399 19.2489 273.13 19.2695 272.861 19.2882C272.726 19.2976 272.617 19.3328 272.573 19.3994C272.565 19.4105 272.656 19.4381 272.705 19.4547C272.87 19.51 273.031 19.5727 273.212 19.6151C273.384 19.6556 273.596 19.5889 273.781 19.6405C274.196 19.7566 274.2 19.7547 274.514 19.7322C274.784 19.7117 275.053 19.6892 275.322 19.6742C275.375 19.6705 275.437 19.6981 275.495 19.7129C275.667 19.7534 275.78 19.8457 276.033 19.8104C276.224 19.7825 276.436 19.7767 276.636 19.7618C276.805 19.8152 276.962 19.8761 277.143 19.9184C277.311 19.9589 277.361 19.9903 277.272 20.044C277.192 20.094 277.078 20.1144 276.927 20.1183C276.792 20.1202 276.657 20.137 276.523 20.1464C276.453 20.152 276.388 20.1557 276.323 20.1613C276.066 20.1819 276.066 20.1819 275.593 20.064C275.408 20.018 275.201 20.0828 275.024 20.0386C274.905 20.0092 274.802 19.9649 274.687 19.9336C274.637 19.9207 274.56 19.9189 274.498 19.9227C274.294 19.9358 274.09 19.9452 273.895 19.9694C273.756 19.9862 273.676 20.038 273.693 20.0898C273.698 20.1101 273.796 20.1396 273.854 20.1414C273.985 20.145 274.123 20.1189 274.25 20.1318C274.373 20.1446 274.5 20.1814 274.591 20.222C274.777 20.3069 274.984 20.2309 275.16 20.253C275.345 20.2768 275.497 20.3506 275.674 20.3948C275.719 20.4059 275.805 20.3873 275.874 20.3817C276.074 20.3686 276.274 20.3573 276.474 20.3442C276.643 20.3977 276.824 20.4456 276.977 20.5064C277.253 20.6171 277.548 20.6593 277.903 20.6054C278.102 20.5756 278.299 20.5866 278.46 20.6585C278.625 20.7323 278.813 20.7247 279.021 20.7098C279.213 20.6948 279.408 20.654 279.605 20.7055C280.033 20.8198 280.037 20.8253 280.539 20.7805C280.69 20.7674 280.804 20.7636 280.92 20.806C281.027 20.8448 281.142 20.8779 281.253 20.9148C281.453 20.9017 281.657 20.8886 281.857 20.8736C282.114 20.853 282.258 20.8788 282.321 20.9822C282.36 21.045 282.377 21.1023 282.468 21.1448C282.576 21.1964 282.69 21.1945 282.845 21.1795C282.992 21.1665 283.098 21.1461 283.158 21.0795C283.181 21.0517 283.23 21.0258 283.274 21.0036C283.311 20.9869 283.367 20.961 283.4 20.9646C283.462 20.972 283.544 20.9922 283.565 21.0162C283.77 21.2397 283.77 21.2416 283.976 21.3061C284.203 21.378 284.437 21.4424 284.643 21.5236C284.829 21.5955 285.012 21.564 285.212 21.5638C285.364 21.5636 285.463 21.6116 285.452 21.6597C285.444 21.6874 285.388 21.7281 285.339 21.7319C284.939 21.7692 284.535 21.801 284.132 21.8272C284.083 21.831 284.02 21.7977 283.963 21.7812C283.848 21.748 283.744 21.6963 283.621 21.6853C283.499 21.6744 283.356 21.7022 283.221 21.7116C283.087 21.7209 282.944 21.7451 282.821 21.7304C282.698 21.7158 282.599 21.6622 282.484 21.6272C282.43 21.6106 282.356 21.5867 282.311 21.5923C282.014 21.6369 281.792 21.5761 281.577 21.4949C281.532 21.4784 281.454 21.4673 281.397 21.4711C280.924 21.5029 280.455 21.5403 279.981 21.5759C279.79 21.5908 279.633 21.5263 279.589 21.4172C279.567 21.3563 279.525 21.2953 279.524 21.2343C279.521 21.1234 279.295 21.0626 279.132 21.0757C278.862 21.0944 278.589 21.1094 278.324 21.1374C278.108 21.1598 277.923 21.1378 277.775 21.0713C277.601 20.9957 277.405 21.0107 277.21 21.0312C277.063 21.0461 277.023 21.1071 277.035 21.2606C277.046 21.3844 276.978 21.4233 276.713 21.4439C276.378 21.47 276.039 21.4962 275.701 21.5169C275.648 21.5206 275.586 21.4892 275.532 21.4727C275.417 21.4395 275.313 21.386 275.191 21.375C275.068 21.3622 274.925 21.39 274.791 21.4012C274.656 21.4106 274.514 21.4366 274.391 21.4238C274.268 21.4109 274.164 21.3556 274.053 21.3206C273.999 21.304 273.934 21.28 273.881 21.2837C273.611 21.2988 273.342 21.3212 273.073 21.3418C272.771 21.3642 272.771 21.3642 272.339 21.25C272.141 21.1984 271.946 21.2393 271.755 21.2542C271.551 21.2692 271.359 21.2768 271.197 21.203C271.09 21.155 270.971 21.1255 270.844 21.1349C270.506 21.1574 270.171 21.1854 269.833 21.2079C269.775 21.2117 269.698 21.2025 269.652 21.1859C269.434 21.1084 269.22 21.0476 268.918 21.0867C268.657 21.1202 268.376 21.1223 268.115 21.154C267.972 21.1708 267.908 21.23 267.938 21.2762C267.955 21.3002 268.041 21.3278 268.098 21.3278C268.229 21.3295 268.372 21.3016 268.494 21.3126C268.748 21.3346 268.879 21.4897 269.209 21.4469C269.404 21.4209 269.608 21.4114 269.813 21.4039C269.866 21.402 269.924 21.437 269.981 21.4555C270.146 21.5052 270.291 21.5698 270.527 21.5363C270.722 21.5103 270.931 21.5027 271.131 21.4877C271.449 21.4634 271.449 21.4652 271.864 21.5776C272.062 21.6311 272.257 21.5884 272.449 21.5753C272.592 21.5659 272.726 21.5473 272.841 21.5731C273.018 21.6117 273.146 21.7003 273.363 21.6946C273.567 21.6888 273.767 21.6628 273.971 21.6534C274.097 21.6477 274.217 21.6772 274.32 21.727C274.427 21.7768 274.542 21.7989 274.681 21.7877C274.881 21.7727 275.085 21.754 275.289 21.7446C275.346 21.7427 275.412 21.7593 275.466 21.774C275.581 21.8072 275.692 21.8459 275.803 21.8809C276.003 21.8697 276.208 21.8658 276.403 21.8434C276.554 21.8267 276.66 21.834 276.784 21.8708C276.94 21.9206 277.069 22.0092 277.322 21.9665C277.448 21.946 277.595 21.9514 277.721 21.9328C277.876 21.9087 277.983 21.9178 278.094 21.9731C278.305 22.0783 278.567 22.0799 278.836 22.039C279.129 21.9944 279.351 22.046 279.573 22.1271C279.808 22.2119 279.808 22.2101 279.993 22.4151C280.047 22.4742 280.199 22.5018 280.326 22.4906C280.538 22.4719 280.722 22.481 280.879 22.5511C281.044 22.6267 281.24 22.6173 281.44 22.5968C281.705 22.5688 281.97 22.5446 282.189 22.6516C282.297 22.7033 282.411 22.7161 282.554 22.703C282.958 22.6694 283.366 22.6487 283.762 22.6077C284.002 22.5816 284.142 22.6406 284.307 22.6903C284.529 22.7585 284.772 22.8193 284.775 22.9654C284.776 22.9894 284.834 23.0171 284.883 23.0355C284.99 23.0742 285.106 23.1074 285.217 23.1443C285.382 23.1996 285.542 23.2456 285.766 23.2159C285.962 23.1917 286.17 23.1841 286.37 23.1673C286.57 23.1504 286.754 23.141 286.935 23.2111C287.145 23.2904 287.368 23.366 287.606 23.4249C287.775 23.4673 287.994 23.395 288.175 23.4522C288.286 23.4872 288.393 23.5277 288.513 23.5572C288.562 23.5701 288.639 23.5608 288.705 23.557C288.839 23.5495 288.978 23.5439 289.109 23.5253C289.259 23.5048 289.374 23.5084 289.489 23.5508C289.596 23.5895 289.704 23.643 289.827 23.654C290.011 23.6705 290.214 23.5964 290.4 23.6812C290.495 23.7237 290.614 23.7642 290.737 23.7771C290.86 23.7899 291.002 23.762 291.133 23.7637C291.19 23.7637 291.261 23.7932 291.294 23.8172C291.315 23.8301 291.287 23.8653 291.259 23.8838C291.222 23.906 291.17 23.9356 291.117 23.9394C290.713 23.973 290.309 24.0011 289.905 24.0329C289.665 24.0516 289.665 24.0516 289.175 23.9356C289.06 23.908 288.934 23.9136 288.791 23.9267C288.599 23.9435 288.404 23.9751 288.203 23.942C287.938 23.8165 287.615 23.8057 287.273 23.8541C287.131 23.8746 287 23.8747 286.893 23.8397C286.666 23.7696 286.428 23.7051 286.225 23.6221C286.069 23.5576 285.995 23.5521 285.932 23.6409C285.912 23.6686 285.892 23.6982 285.897 23.7241C285.923 23.8165 285.97 23.907 285.997 23.9994C286.006 24.0253 285.974 24.0549 285.954 24.0827C285.891 24.1604 285.805 24.1549 285.66 24.0903C285.516 24.0257 285.343 23.9834 285.115 24.0132C284.919 24.0392 284.707 24.0357 284.511 24.0636C284.21 24.1046 283.996 24.0456 283.777 23.9663C283.732 23.9497 283.654 23.9406 283.597 23.9443C282.989 23.9874 282.385 24.036 281.777 24.079C281.647 24.0884 281.527 24.0608 281.424 24.011C281.317 23.9611 281.197 23.9354 281.067 23.9447C280.528 23.984 279.99 24.0196 279.451 24.0682C279.231 24.0887 279.055 24.0648 278.902 24.0003C278.786 23.9523 278.68 23.9376 278.537 23.9433C278.382 23.949 278.272 23.9676 278.195 24.0213C278.123 24.0731 278.177 24.1044 278.341 24.145C278.518 24.1892 278.683 24.2463 278.852 24.298C278.986 24.2904 279.121 24.2755 279.252 24.2772C279.309 24.2772 279.363 24.3104 279.421 24.3289C279.585 24.3823 279.738 24.4358 279.97 24.406C280.166 24.3799 280.374 24.3742 280.574 24.3574C280.851 24.3368 280.851 24.3368 281.304 24.4529C281.419 24.4823 281.541 24.4804 281.688 24.4636C281.814 24.4505 281.946 24.4763 282.037 24.5317C282.074 24.5538 282.063 24.5908 281.988 24.7129C281.99 24.8035 282.075 24.7627 282.102 24.7035C282.145 24.6185 282.059 24.5908 281.896 24.6372C281.783 24.6706 281.727 24.7187 281.756 24.7575C281.773 24.7778 281.851 24.8036 281.988 24.7129C282.345 24.6017 282.619 24.5885 282.88 24.5587C283.035 24.5419 283.133 24.5492 283.257 24.5971C283.405 24.6543 283.554 24.7152 283.794 24.6854C284.055 24.6519 284.333 24.6479 284.598 24.62C284.842 24.5939 284.971 24.6751 285.127 24.723C285.317 24.7801 285.524 24.7153 285.696 24.7484C285.877 24.7815 286.005 24.8627 286.214 24.8773C286.515 24.8271 286.71 24.9194 286.94 24.9802C287.121 25.0262 287.332 24.9854 287.524 24.9648C287.74 24.9425 287.92 24.9627 288.073 25.0291C288.247 25.1047 288.438 25.0879 288.634 25.0711C289.091 25.0337 289.107 25.0281 289.375 25.1296C289.569 25.2033 289.752 25.1699 289.944 25.1605C290.113 25.2102 290.277 25.2637 290.454 25.3079C290.5 25.3189 290.585 25.3004 290.654 25.2948C290.854 25.2798 291.058 25.2648 291.258 25.2499C291.393 25.2405 291.535 25.2126 291.658 25.2236C291.781 25.2365 291.884 25.29 291.996 25.325C292.107 25.36 292.222 25.395 292.329 25.4319C292.494 25.4872 292.65 25.5333 292.878 25.5054C293.074 25.4812 293.278 25.4736 293.482 25.4568C293.739 25.4362 293.731 25.4417 294.212 25.5522C294.471 25.613 294.735 25.5388 294.996 25.5312C295.127 25.5274 295.254 25.5476 295.345 25.6011C295.383 25.6233 295.371 25.6602 295.384 25.6917C294.711 25.7422 294.033 25.7853 293.369 25.8469C293.112 25.8712 292.975 25.8047 292.835 25.7494C292.604 25.6609 292.305 25.7905 292.086 25.6761C291.953 25.6078 291.764 25.5692 291.54 25.6027C291.41 25.6213 291.271 25.6196 291.136 25.6363C290.794 25.6773 290.479 25.6794 290.202 25.5521C290.107 25.5079 289.972 25.4839 289.873 25.4415C289.757 25.3954 289.646 25.3696 289.512 25.379C288.904 25.4239 288.3 25.4688 287.696 25.5174C287.643 25.5211 287.591 25.5489 287.546 25.5693C287.433 25.6212 287.471 25.6618 287.655 25.6949C287.717 25.706 287.767 25.7299 287.824 25.7484C287.936 25.7834 288.039 25.8388 288.162 25.8516C288.285 25.8644 288.427 25.8384 288.562 25.829C288.697 25.8197 288.839 25.7918 288.962 25.8028C289.085 25.8156 289.188 25.8691 289.303 25.9023C289.357 25.9189 289.423 25.9466 289.476 25.9447C289.746 25.9333 290.011 25.9128 290.28 25.8959C290.449 25.9456 290.594 26.0176 290.794 26.0341C290.921 26.045 291.056 26.0246 291.186 26.0282C291.244 26.03 291.318 26.0576 291.347 26.0816C291.364 26.0964 291.312 26.1334 291.271 26.1519C291.117 26.2223 290.905 26.2096 290.713 26.2319C290.505 26.2561 290.317 26.2489 290.156 26.177C290.049 26.129 289.929 26.1033 289.799 26.1126C289.46 26.1369 289.126 26.165 288.787 26.1856C288.73 26.1894 288.66 26.1728 288.606 26.1599C288.175 26.0475 288.175 26.0438 287.873 26.0681C287.428 26.1037 287.428 26.1036 287.127 26.0059C287.07 25.9875 287.008 25.9525 286.959 25.9543C286.485 25.9843 286.016 26.0143 285.547 26.0573C285.392 26.0704 285.286 26.0705 285.17 26.0225C285.071 25.9819 284.956 25.9358 284.833 25.9248C284.706 25.9138 284.567 25.9417 284.433 25.9511C284.298 25.9604 284.156 25.9846 284.037 25.9699C283.914 25.9552 283.806 25.9036 283.699 25.8667C283.588 25.828 283.469 25.8299 283.319 25.8448C282.854 25.8878 282.849 25.8822 282.385 25.7681C282.331 25.7552 282.262 25.7404 282.205 25.7442C281.866 25.7667 281.531 25.7947 281.193 25.8172C281.062 25.8266 280.935 25.8026 280.844 25.7491C280.806 25.727 280.818 25.69 280.792 25.6179C280.763 25.6013 280.796 25.6308 280.805 25.6586C280.866 25.6548 280.94 25.6584 280.984 25.6436C281.098 25.6084 281.154 25.5621 281.124 25.5233C281.108 25.503 281.029 25.4772 280.98 25.4772C280.89 25.4773 280.814 25.5181 280.792 25.6179C280.535 25.6791 280.262 25.6923 279.997 25.7221C279.842 25.7408 279.744 25.7316 279.62 25.6837C279.471 25.6246 279.319 25.5675 279.078 25.5973C278.818 25.6308 278.54 25.6366 278.271 25.6627C277.961 25.6926 277.822 25.5263 277.561 25.5302C277.291 25.5342 277.022 25.5658 276.753 25.5883C276.516 25.607 276.516 25.607 276.023 25.4872C275.842 25.443 275.631 25.5079 275.454 25.4619C275.335 25.4324 275.232 25.3881 275.116 25.3568C275.067 25.3439 274.99 25.344 274.928 25.3477C274.59 25.3702 274.247 25.3853 273.921 25.4263C273.55 25.4747 273.267 25.4232 272.998 25.3144C272.664 25.335 272.325 25.3464 271.995 25.3818C271.754 25.4079 271.614 25.347 271.449 25.2973C271.391 25.2807 271.342 25.253 271.28 25.2457C271.219 25.2383 271.145 25.2532 271.08 25.2588C270.811 25.2794 270.533 25.2889 270.272 25.3224C269.951 25.3652 269.824 25.2137 269.575 25.1954C269.409 25.2862 269.322 25.4101 268.991 25.4196C268.722 25.4273 268.453 25.4571 268.184 25.4777C268.049 25.487 267.914 25.4983 267.78 25.5076C267.563 25.5245 267.463 25.5966 267.51 25.7075C267.536 25.7685 267.558 25.8295 267.58 25.8904C267.624 25.9995 267.524 26.092 267.352 26.1051C266.879 26.1406 266.41 26.178 265.936 26.2099C265.81 26.2192 265.687 26.1879 265.583 26.1381C265.476 26.0883 265.357 26.0662 265.226 26.0756C264.753 26.1111 264.284 26.1485 263.81 26.1804C263.757 26.1841 263.688 26.1657 263.634 26.1509C263.519 26.1178 263.408 26.0791 263.296 26.044C263.027 26.0609 262.762 26.0722 262.497 26.0946C262.068 26.1283 262.068 26.1302 261.751 26.0288C261.693 26.0103 261.635 25.9753 261.582 25.9772C261.378 25.9848 261.178 26.0034 260.974 26.0202C260.375 26.0688 260.375 26.0688 260.198 26.0135C260.037 25.9619 259.892 25.8992 259.652 25.929C259.391 25.9625 259.114 25.9739 258.844 25.9926C258.644 26.0057 258.444 26.0207 258.244 26.0246C258.191 26.0264 258.133 25.9914 258.075 25.9729C257.911 25.9158 257.75 25.8697 257.526 25.9013C257.396 25.9199 257.257 25.9238 257.122 25.9331C256.771 25.9593 256.771 25.9593 256.192 25.8489C256.135 25.8379 256.065 25.825 256.008 25.8306C255.535 25.8643 255.066 25.9017 254.592 25.9336C254.535 25.9373 254.465 25.9263 254.408 25.9171C253.76 25.8104 253.76 25.8105 253.074 25.8628C252.813 25.8816 252.805 25.889 252.529 25.7912C252.405 25.7488 252.303 25.7286 252.16 25.7416C251.622 25.7865 251.079 25.8166 250.545 25.8688C250.304 25.8912 250.164 25.8359 249.999 25.7861C249.941 25.7695 249.879 25.7326 249.83 25.7345C249.292 25.7701 248.753 25.8131 248.214 25.8487C248.165 25.8525 248.103 25.8155 248.046 25.799C247.935 25.7658 247.827 25.716 247.704 25.705C247.577 25.694 247.439 25.7219 247.3 25.7312C246.962 25.7556 246.961 25.7537 246.567 25.645C246.513 25.6303 246.443 25.61 246.39 25.6137C245.851 25.6512 245.309 25.6831 244.775 25.7372C244.469 25.7671 244.259 25.7136 244.041 25.6362C243.995 25.6196 243.917 25.6123 243.86 25.616C243.252 25.6591 242.649 25.7077 242.041 25.7508C241.914 25.7601 241.791 25.7288 241.687 25.6808C241.522 25.6052 241.33 25.6146 241.126 25.6314C240.657 25.6707 240.653 25.6688 240.373 25.5804C240.315 25.5619 240.266 25.5379 240.204 25.5287C240.147 25.5195 240.073 25.5252 240.012 25.5289C239.743 25.5476 239.474 25.5682 239.204 25.5888C238.935 25.6094 238.662 25.6207 238.397 25.6524C238.071 25.6915 237.912 25.5715 237.682 25.5162C237.348 25.5405 237.005 25.5556 236.675 25.5948C236.422 25.6246 236.302 25.5433 236.133 25.501C236.075 25.4862 236.013 25.4549 235.96 25.4586C235.352 25.4998 234.744 25.5447 234.141 25.5952C233.994 25.6064 233.895 25.5917 233.772 25.5475C233.496 25.4479 233.483 25.4516 233.026 25.489C232.827 25.5058 232.635 25.5208 232.461 25.4451C232.308 25.3769 232.124 25.3604 231.908 25.3828C231.643 25.4107 231.37 25.4258 231.1 25.4445C230.831 25.4651 230.562 25.493 230.292 25.5025C230.076 25.512 229.943 25.4252 229.771 25.381C229.717 25.3681 229.644 25.3663 229.582 25.3701C229.313 25.387 229.035 25.4001 228.775 25.4318C228.457 25.4709 228.279 25.3694 228.052 25.3105C228.003 25.2976 227.921 25.305 227.86 25.3106C227.387 25.3443 226.918 25.3817 226.444 25.4173C226.276 25.3675 226.103 25.3196 225.934 25.2699C225.665 25.2886 225.396 25.3091 225.126 25.3279C224.922 25.3428 224.714 25.3486 224.523 25.3765C224.274 25.4137 224.149 25.3269 223.981 25.2845C223.923 25.2698 223.861 25.2384 223.808 25.2422C223.469 25.2628 223.131 25.2853 222.796 25.317C222.478 25.3488 222.348 25.1825 222.086 25.1846C221.817 25.1867 221.539 25.211 221.278 25.2445C220.977 25.2835 220.763 25.2246 220.544 25.1453C220.499 25.1287 220.421 25.1195 220.364 25.1233C220.025 25.1458 219.691 25.1738 219.352 25.1963C219.295 25.2 219.225 25.1909 219.168 25.1798C218.52 25.0713 218.52 25.0695 218.238 25.0919C218.038 25.1069 217.834 25.1256 217.63 25.135C217.573 25.1387 217.503 25.1222 217.45 25.1074C217.022 24.995 217.022 24.9932 216.716 25.0156C216.447 25.0362 216.177 25.0568 215.908 25.0774C215.739 25.0276 215.567 24.9797 215.398 24.93C215.063 24.9543 214.72 24.9731 214.39 25.0066C214.235 25.0216 214.133 25.0161 214.013 24.97C213.865 24.9147 213.716 24.8501 213.472 24.8818C213.211 24.9153 212.933 24.9192 212.668 24.9472C212.35 24.9808 212.215 24.8127 211.958 24.8147C211.688 24.8168 211.411 24.8411 211.15 24.8746C210.848 24.9137 210.635 24.8548 210.416 24.7755C210.371 24.7589 210.293 24.7497 210.236 24.7535C209.493 24.8077 208.755 24.862 208.012 24.92C207.555 24.9555 207.555 24.9573 206.682 24.8565C206.621 24.8491 206.555 24.8418 206.494 24.8455C206.225 24.8624 205.947 24.8756 205.686 24.9073C205.368 24.9464 205.19 24.8467 204.964 24.7859C204.915 24.773 204.837 24.7805 204.772 24.7842C204.568 24.7974 204.368 24.8142 204.164 24.8292C203.895 24.8497 203.626 24.8703 203.356 24.8909C203.188 24.843 203.015 24.7932 202.846 24.7453C202.511 24.7696 202.168 24.7829 201.838 24.822C201.586 24.8518 201.465 24.7743 201.297 24.7301C201.239 24.7153 201.177 24.684 201.124 24.6859C200.516 24.7271 199.908 24.7701 199.304 24.8224C199.056 24.8448 198.939 24.7617 198.771 24.7194C198.713 24.7065 198.647 24.6825 198.594 24.6863C198.19 24.7125 197.786 24.7443 197.382 24.7761C197.154 24.7948 197.154 24.7948 196.653 24.6806C196.595 24.6677 196.529 24.6549 196.472 24.6586C195.191 24.7522 193.914 24.8513 192.633 24.9449C192.502 24.9543 192.383 24.9266 192.28 24.8768C192.172 24.827 192.053 24.8012 191.923 24.8106C191.384 24.8499 190.841 24.8855 190.307 24.9341C190.087 24.9546 189.911 24.9307 189.758 24.8661C189.642 24.8182 189.536 24.7998 189.393 24.811C189.124 24.8334 188.854 24.8522 188.585 24.8727C188.316 24.8933 188.047 24.9139 187.777 24.9345C187.508 24.9551 187.234 24.9664 186.97 24.9981C186.643 25.0372 186.481 24.9227 186.255 24.8656C185.851 24.8937 185.447 24.9218 185.047 24.9517C184.509 24.991 183.97 25.034 183.432 25.0715C183.383 25.0752 183.321 25.042 183.263 25.0254C183.094 24.9794 182.97 24.9148 182.721 24.9353C181.514 25.0344 180.298 25.1187 179.086 25.2159C178.834 25.2365 178.721 25.1571 178.549 25.1147C178.491 25.1018 178.425 25.076 178.372 25.0797C177.699 25.1266 177.026 25.1789 176.353 25.2294C176.079 25.25 176.079 25.25 175.619 25.1358C175.565 25.1229 175.495 25.1063 175.438 25.1101C174.561 25.1737 173.688 25.2411 172.811 25.3066C172.68 25.3159 172.561 25.2902 172.454 25.2403C172.35 25.1905 172.227 25.1629 172.101 25.1723C171.293 25.2321 170.481 25.2902 169.677 25.3556C169.461 25.3743 169.281 25.3578 169.124 25.2914C169.012 25.2434 168.902 25.2232 168.763 25.2344C167.551 25.3261 166.339 25.4141 165.128 25.5113C164.895 25.53 164.731 25.495 164.582 25.4341C164.463 25.3862 164.36 25.377 164.213 25.3845C164.058 25.3939 163.965 25.4143 163.88 25.4699C163.772 25.5421 163.704 25.6327 163.443 25.6385C163.173 25.6443 162.9 25.6667 162.635 25.6984C162.382 25.73 162.262 25.647 162.101 25.5972C161.982 25.5622 161.871 25.5567 161.721 25.5735C161.582 25.5884 161.497 25.6199 161.416 25.6791C161.24 25.805 161.223 25.805 161.001 25.7257C160.881 25.6833 160.774 25.6501 160.643 25.6576C160.105 25.6951 159.566 25.7363 159.028 25.7793C158.718 25.8036 158.714 25.8073 158.479 25.7151C158.363 25.6689 158.252 25.6469 158.118 25.6581C156.637 25.7703 155.156 25.8789 153.675 25.9967C153.446 26.0154 153.29 25.9767 153.125 25.9214C153.072 25.9029 153.018 25.8771 152.957 25.8697C152.895 25.8624 152.826 25.8699 152.76 25.8736C151.683 25.9541 150.602 26.0309 149.529 26.1206C149.284 26.1411 149.152 26.0821 148.984 26.0342C148.926 26.0176 148.876 25.9917 148.815 25.9844C148.753 25.9789 148.68 25.9919 148.615 25.9975C147.538 26.078 146.457 26.1547 145.384 26.2444C145.127 26.265 145.015 26.1875 144.846 26.1469C144.788 26.1322 144.727 26.1045 144.673 26.1083C144.335 26.1289 144 26.1569 143.662 26.1813C142.854 26.243 142.046 26.3011 141.238 26.3646C140.928 26.3889 140.789 26.2245 140.528 26.2322C140.189 26.2417 139.855 26.279 139.516 26.3052C139.247 26.3257 138.977 26.3445 138.708 26.3669C138.443 26.3875 138.443 26.3875 137.778 26.2808C137.721 26.2717 137.651 26.2588 137.594 26.2625C136.652 26.3318 135.705 26.401 134.767 26.4758C134.551 26.4926 134.37 26.4836 134.214 26.4153C134.102 26.3674 133.987 26.3434 133.853 26.3546C132.437 26.4613 131.025 26.5679 129.609 26.6727C129.556 26.6765 129.486 26.658 129.433 26.6433C129.318 26.6101 129.206 26.5714 129.095 26.5364C129.015 26.579 128.909 26.6179 128.857 26.666C128.785 26.7308 128.687 26.7493 128.532 26.7606C128.377 26.7718 128.279 26.7682 128.156 26.7202C128.007 26.6612 127.855 26.6151 127.614 26.6338C126.133 26.7516 124.652 26.8583 123.171 26.9743C122.926 26.993 122.81 26.9117 122.637 26.8694C122.58 26.8565 122.514 26.8362 122.461 26.84C121.853 26.883 121.249 26.9298 120.641 26.9747C118.956 27.1019 117.271 27.2236 115.59 27.3582C115.284 27.3825 115.075 27.3365 114.856 27.2572C114.811 27.2406 114.733 27.2314 114.676 27.2352C112.318 27.4111 109.96 27.5888 107.606 27.7665C107.479 27.7759 107.356 27.7464 107.252 27.6984C107.145 27.6486 107.026 27.6247 106.895 27.6341C105.818 27.7145 104.741 27.795 103.664 27.8773C103.395 27.8979 103.391 27.8997 103.111 27.8112C103.053 27.7928 102.991 27.7577 102.946 27.7615C102.852 27.7708 102.763 27.8171 102.7 27.88C102.636 27.9466 102.534 27.9652 102.383 27.9782C102.228 27.9913 102.126 27.9859 102.006 27.9416C101.854 27.8863 101.713 27.8328 101.469 27.8515C98.3722 28.0909 95.2755 28.3211 92.1789 28.5586C91.93 28.5773 91.8138 28.4998 91.6411 28.4575C91.5836 28.4446 91.5259 28.4261 91.4646 28.4225C91.3991 28.4188 91.3299 28.43 91.2646 28.4356C86.2137 28.8154 81.1628 29.1971 76.1119 29.5769C75.81 29.5993 75.8141 29.5993 75.487 29.7697C75.4466 29.79 75.3941 29.8178 75.337 29.8216C73.7908 29.9413 72.2404 30.0573 70.69 30.1733C70.0169 30.2238 69.3437 30.2762 68.6705 30.3248C68.4298 30.3417 68.4298 30.3417 67.8582 30.5418C67.8095 30.5585 67.7528 30.5808 67.6956 30.5845C65.0029 30.7884 62.3102 30.9923 59.6133 31.1926C59.4011 31.2075 59.2303 31.241 59.1343 31.3298C59.0663 31.3927 58.9773 31.4297 58.8426 31.4409C56.9577 31.5831 55.0729 31.7272 53.1838 31.8657C52.9594 31.8825 52.8257 31.9344 52.7172 32.0121C52.681 32.038 52.649 32.0676 52.5963 32.0862C52.5477 32.1028 52.4742 32.1085 52.4131 32.1141C50.7974 32.2357 49.1819 32.361 47.5621 32.477C47.3213 32.4939 47.2248 32.5624 47.108 32.6346C47.0676 32.6586 47.0398 32.692 46.9871 32.7086C46.9343 32.7235 46.8566 32.7235 46.7913 32.7273C45.445 32.8283 44.0987 32.9312 42.7523 33.0322C42.4905 33.0232 42.4358 33.1305 42.3106 33.1953C42.2661 33.2175 42.2342 33.2471 42.1814 33.262C42.1246 33.2768 42.0509 33.275 41.9815 33.2788C40.9044 33.3592 39.8274 33.4453 38.7461 33.5202C38.4972 33.537 38.4503 33.6313 38.317 33.6962C38.2725 33.7165 38.2283 33.748 38.1753 33.7536C37.5022 33.8078 36.8291 33.8583 36.1558 33.907C35.9314 33.9238 35.9314 33.922 35.5392 34.1053C35.4947 34.1257 35.4421 34.148 35.385 34.1535C34.3773 34.2321 33.3655 34.3069 32.3537 34.3836C32.2231 34.393 32.1343 34.4374 32.0704 34.5004C32.0065 34.5633 31.9134 34.604 31.7829 34.6134C30.9751 34.6751 30.1672 34.7387 29.3593 34.7949C29.1349 34.8099 28.9888 34.8562 28.8927 34.9395C28.8206 35.0024 28.7314 35.0339 28.5887 35.0451C27.7808 35.105 26.9731 35.1704 26.161 35.2229C25.9243 35.2379 25.8031 35.3009 25.7069 35.3786C25.6307 35.4415 25.5413 35.4638 25.3903 35.475C23.9093 35.5836 22.4241 35.6921 20.9474 35.8117C20.6986 35.8323 20.5703 35.7677 20.4058 35.7216C20.1713 35.6572 19.9531 35.5871 19.9497 35.4429C19.9492 35.4207 19.8791 35.3949 19.8296 35.3765C19.4626 35.2382 19.4626 35.2382 19.4019 35.0904C19.3671 34.9998 19.3281 34.9074 19.2973 34.815C19.2407 34.6635 19.1089 34.6248 18.7336 34.6529C18.5989 34.6622 18.4643 34.6753 18.3296 34.6828C18.1297 34.6959 17.977 34.635 17.9377 34.5242C17.9158 34.4632 17.8899 34.4022 17.868 34.3412C18.072 34.3262 18.0678 34.3244 18.4222 34.1004C18.5712 34.006 18.5713 34.006 18.2789 33.912C18.1677 33.877 18.0605 33.8382 17.9412 33.8051C17.8877 33.7903 17.8181 33.7812 17.7609 33.7849C17.4222 33.8074 17.0877 33.8336 16.7532 33.8598C16.2147 33.9009 16.2146 33.9009 15.6625 33.7128C15.6172 33.6981 15.5471 33.6704 15.5549 33.6556C15.5982 33.5872 15.7079 33.5575 15.8467 33.55C16.0508 33.5387 16.2506 33.5201 16.4505 33.5051C16.5852 33.4957 16.7198 33.4845 16.8544 33.4752C16.9795 33.4048 17.1087 33.3363 17.2255 33.2641C17.4109 33.153 17.4108 33.1493 17.1515 33.0719C16.9868 33.0203 16.81 32.9742 16.6413 32.9263C16.4413 32.9413 16.2374 32.9581 16.0374 32.9712C15.7844 32.9881 15.6814 32.9531 15.6132 32.833C15.5535 32.7277 15.6209 32.637 15.8165 32.6147C16.0163 32.5923 16.204 32.5774 16.304 32.483C16.3999 32.3923 16.5707 32.357 16.7831 32.3495C16.9178 32.3438 17.0524 32.3307 17.187 32.3195C17.3624 32.3046 17.4542 32.2102 17.4149 32.1049C17.3929 32.0365 17.3507 31.9792 17.1909 31.9646C16.4824 31.9005 16.4742 31.9024 16.1197 31.777C16.0868 31.7659 16.0615 31.7327 16.0734 31.7161C16.0932 31.6883 16.1372 31.6476 16.1861 31.642C16.6552 31.6009 17.1243 31.5635 17.5936 31.5354C17.7487 31.526 17.8629 31.5129 17.9144 31.4445C17.9858 31.3502 17.951 31.2633 17.8065 31.1987C17.761 31.1785 17.6868 31.1526 17.6378 31.1545C17.0991 31.1883 16.5647 31.2313 16.026 31.265C15.977 31.2688 15.8864 31.2375 15.8654 31.2134C15.8235 31.1691 15.8834 31.1099 16.026 31.0894C16.2133 31.0615 16.4054 31.0595 16.5299 30.967C16.7025 30.8356 16.9163 30.7152 17.1095 30.5894C17.1417 30.5672 17.1939 30.5246 17.1816 30.5209C17.0784 30.4803 16.9592 30.449 16.852 30.4103C16.6706 30.3457 16.6685 30.2552 16.7073 30.1683C16.7383 30.098 16.8603 30.0701 17.0115 30.07C17.0769 30.0699 17.1586 30.0699 17.2114 30.0532C17.3494 30.0124 17.3931 29.9606 17.3228 29.9218C17.2814 29.8997 17.2071 29.8683 17.1581 29.8721C16.285 29.9339 15.4076 29.9938 14.5388 30.0704C14.2818 30.0928 14.1617 30.0227 14.0053 29.9729C13.8858 29.9342 13.7751 29.9195 13.6286 29.9473C13.4902 29.9733 13.3551 29.9587 13.2678 29.8978C13.1972 29.8479 13.3187 29.8053 13.6487 29.7569C13.7098 29.7476 13.7791 29.742 13.8236 29.7235C14.293 29.5234 14.2929 29.5216 14.6193 29.4954C14.9375 29.4711 14.9376 29.4693 15.1026 29.3619C15.1791 29.3119 15.2637 29.2619 15.336 29.2101C15.3642 29.1897 15.4124 29.1527 15.3958 29.1416C15.3045 29.0844 15.1816 29.0716 15.0388 29.0847C14.7208 29.1164 14.3442 29.0908 14.1808 29.2666C14.1169 29.3332 14.0152 29.3518 13.8683 29.363C12.3913 29.4715 10.9145 29.5875 9.43331 29.6923C9.19256 29.7092 9.08388 29.7777 8.99166 29.8536C8.9114 29.9165 8.8219 29.935 8.66685 29.9463C8.5118 29.9575 8.38926 29.9632 8.29792 29.9022C8.24392 29.8653 8.28767 29.8135 8.40906 29.7617C8.58307 29.6876 8.54819 29.5952 8.48893 29.5083C8.44671 29.4511 8.31906 29.4105 8.18428 29.4143C7.98419 29.4219 7.79263 29.4424 7.62332 29.3686C7.52423 29.3262 7.4009 29.2967 7.28969 29.2598C7.07538 29.1842 6.86102 29.1068 6.56384 29.157C6.35906 29.1387 6.21445 29.0723 6.04975 29.0207C5.77392 28.9359 5.7491 28.923 5.94315 28.8322C6.16146 28.7303 5.98664 28.5974 6.10691 28.4975C6.23518 28.3901 6.41285 28.2957 6.5699 28.1957C6.61016 28.1698 6.6464 28.1458 6.68666 28.1198C6.59179 28.083 6.50489 28.0368 6.39394 28.0111C6.25011 27.9779 6.17558 27.9373 6.18107 27.8227C6.15207 27.8061 6.16524 27.8486 6.1982 27.8596C6.23524 27.8707 6.32501 27.8614 6.36966 27.8484C6.48327 27.8132 6.53935 27.7669 6.50982 27.7281C6.493 27.7078 6.4148 27.682 6.36575 27.682C6.27584 27.6821 6.19915 27.7228 6.17697 27.8227C5.72101 27.8989 5.24771 27.9363 4.7743 27.9663C4.72535 27.97 4.66321 27.9331 4.60556 27.9147C4.41608 27.852 4.4161 27.8538 3.86391 27.8359C3.80665 27.8341 3.72843 27.8083 3.69921 27.7824C3.57804 27.6698 3.57925 27.5459 3.51921 27.4258C3.62365 27.3481 3.72805 27.2722 3.83662 27.1963C4.05371 27.0427 4.3367 26.9075 4.5044 26.7391C4.46549 26.6486 4.41431 26.558 4.5924 26.4839C5.10111 26.391 5.09706 26.391 5.23393 26.3022C5.62447 26.0504 6.01085 25.7968 6.41782 25.5488C6.52665 25.484 6.52584 25.4488 6.32901 25.4213C6.26754 25.414 6.20201 25.4122 6.13671 25.4159C5.93266 25.429 5.72909 25.4625 5.52865 25.4553C5.32826 25.4499 5.17922 25.3687 5.01456 25.3189C4.84578 25.2673 4.67696 25.2139 4.50813 25.1604C4.31617 25.1662 4.12533 25.2181 3.93129 25.1351C3.78264 25.0705 3.59765 25.0245 3.42882 24.971C3.55222 24.8304 3.78678 24.723 3.96779 24.599C4.13271 24.486 4.13675 24.4879 4.58428 24.4006C4.79585 24.3598 4.86452 24.1508 4.68325 24.09C4.4649 24.0162 4.23447 23.948 4.01212 23.878C3.82016 23.8837 3.6252 23.9338 3.43933 23.8508C3.29481 23.7881 3.13029 23.7457 2.89381 23.7699C2.49424 23.811 2.08602 23.8317 1.68219 23.8653C1.54349 23.8765 1.39205 23.8693 1.32927 23.8065C1.28736 23.7621 1.40446 23.701 1.53903 23.688C1.74294 23.6693 1.92632 23.647 2.02632 23.5544C2.12224 23.4619 2.3014 23.434 2.51362 23.4209C2.57075 23.4171 2.63567 23.3949 2.66376 23.3727C2.80837 23.2653 2.9697 23.1728 3.28448 23.1762C3.4144 23.1391 3.48275 23.0928 3.44084 23.0485C3.41575 23.0245 3.32923 22.9932 3.28027 22.9969C2.94148 23.0157 2.60271 23.0345 2.27244 23.0681C2.11748 23.083 1.99898 23.0868 1.89959 23.0314C1.82924 22.9945 1.86485 22.9446 1.99437 22.8908C2.10772 22.8445 2.1392 22.7909 2.12955 22.728C2.10568 22.582 1.98205 22.5396 1.58991 22.5492C1.30808 22.5569 1.23803 22.5329 1.17377 22.4072C1.15673 22.3777 1.11498 22.3371 1.14311 22.3167C1.3159 22.1908 1.42669 22.0355 1.75635 21.976C1.88662 21.9537 2.02552 21.9536 2.10613 21.9055C2.18674 21.8573 2.25904 21.8018 2.34379 21.7555C2.44875 21.7 2.52103 21.6481 2.47116 21.6131C2.38794 21.5503 2.25707 21.5449 2.10637 21.5672C1.97602 21.5858 1.83711 21.5877 1.7025 21.599C1.46184 21.6195 1.26458 21.5716 1.23406 21.4903C1.15137 21.276 1.06461 21.0635 0.990093 20.8491C0.981311 20.8232 1.00091 20.7899 1.03308 20.7677C1.1457 20.69 1.26662 20.6159 1.38336 20.54C1.52028 20.453 1.74141 20.4695 1.92902 20.4527C2.19411 20.4284 2.19406 20.4302 2.54547 20.2525C2.68277 20.1821 2.92457 20.2096 3.06614 20.1466C3.11062 20.1263 3.17932 20.0929 3.16662 20.0744C3.14971 20.0504 3.06758 20.032 3.00602 20.021C2.94854 20.0099 2.87894 20.0045 2.81777 20.0101C2.07519 20.0643 1.3368 20.1223 0.594179 20.1747C0.467698 20.1841 0.32778 20.1436 0.281477 20.0863C0.23526 20.0327 0.245961 19.968 0.236355 19.907C0.353098 19.8311 0.486268 19.7607 0.586534 19.6793C0.662711 19.6164 0.75199 19.5886 0.90721 19.5848C1.11143 19.579 1.31119 19.5567 1.53968 19.5398C1.95839 19.2696 2.36859 18.9864 2.82 18.7161C3.00136 18.6069 2.95387 18.496 2.98791 18.3795C3.02218 18.2722 3.29638 18.2886 3.47956 18.2571C3.62609 18.231 3.67368 18.1718 3.61551 18.1312C3.58224 18.1072 3.50807 18.0795 3.45085 18.0796C3.31598 18.0797 3.1815 18.0965 3.04684 18.1058C2.91219 18.1152 2.75676 18.1098 2.64715 18.1413C2.54158 18.171 2.47354 18.2339 2.40532 18.2876C2.32905 18.3468 2.22743 18.3672 2.07221 18.3711C1.87203 18.375 1.67217 18.3918 1.47221 18.4049C1.24981 18.333 1.01924 18.263 0.804938 18.1874C0.76372 18.1726 0.754504 18.1301 0.757939 18.1024C0.76442 18.0303 0.702088 17.986 0.566391 17.951C0.45126 17.9215 0.356252 17.8791 0.249121 17.8422C0.329689 17.7922 0.418506 17.744 0.482639 17.6904C0.623037 17.5775 0.800976 17.496 1.11168 17.4994C1.23259 17.4272 1.32857 17.3384 1.48679 17.2884C1.63688 17.2402 1.89551 17.288 2.00738 17.1788C2.06334 17.1252 2.14778 17.0641 2.25761 17.0418C2.43253 17.0065 2.66183 17.0248 2.76158 16.9212C2.82149 16.862 2.91011 16.8083 3.02829 16.7934C3.16277 16.7766 3.30161 16.7728 3.39887 16.7376C3.45157 16.7191 3.5081 16.6895 3.50749 16.6636C3.5071 16.6469 3.42482 16.6211 3.36734 16.6101C3.3139 16.5972 3.24413 16.588 3.18291 16.5918C2.97882 16.6031 2.77903 16.6236 2.57494 16.6348C2.51781 16.6386 2.45213 16.6257 2.39057 16.6147C2.21004 16.5853 2.22141 16.5483 2.3629 16.4816C2.50442 16.4168 2.6047 16.3335 2.72144 16.2576C2.85192 16.2445 3.01551 16.2499 3.1046 16.2147C3.25448 16.1573 3.35876 16.074 3.47967 16.0018C3.61429 15.9906 3.75315 15.9868 3.87937 15.9663C3.93233 15.9589 3.95591 15.9182 4.00031 15.8941C4.08096 15.8478 4.14893 15.7812 4.25876 15.759C4.43781 15.7255 4.65881 15.7383 4.76268 15.6365C4.8226 15.5773 4.91509 15.5144 5.02944 15.5106C5.34806 15.5029 5.48054 15.4011 5.64177 15.3048C5.76268 15.2326 6.02513 15.2694 6.15831 15.1971C6.24714 15.1508 6.31122 15.0935 6.4001 15.049C6.43644 15.0305 6.51385 15.0212 6.57503 15.0156C6.90951 14.9876 7.24825 14.9669 7.58269 14.9371C7.63569 14.9315 7.68412 14.9037 7.72447 14.8815C7.80917 14.8333 7.86068 14.7667 7.9662 14.7352C8.07173 14.7037 8.22293 14.7036 8.3535 14.6942C8.77381 14.6661 8.80671 14.6735 8.99511 14.5162C9.14742 14.3885 9.52969 14.4787 9.65309 14.3381C9.72474 14.2567 9.85799 14.1901 10.0989 14.1806C10.4378 14.1673 10.7721 14.1319 11.1108 14.1076C11.4127 14.0851 11.4086 14.0851 11.7316 13.9129C11.8769 13.8352 12.0938 13.8461 12.2855 13.8311C12.4895 13.8161 12.677 13.7938 12.7729 13.7013C12.8689 13.6106 13.048 13.5808 13.2561 13.5677C13.4479 13.5546 13.6648 13.5637 13.8143 13.4896C14.1779 13.3118 14.1738 13.31 14.4309 13.2912C14.8348 13.2613 15.2387 13.2314 15.6426 13.1996C15.9118 13.179 16.1937 13.175 16.4462 13.1341C16.6294 13.1044 16.7087 13.0008 16.8255 12.9286C17.16 12.9006 17.4945 12.8726 17.829 12.8464C18.2981 12.809 18.7714 12.7753 19.2447 12.7397C19.4474 12.6693 19.4724 12.514 19.8156 12.5063C20.0198 12.5024 20.2195 12.4782 20.4235 12.4632C20.7622 12.4371 21.0965 12.4035 21.4354 12.3902C21.6927 12.3808 21.7352 12.2809 21.8686 12.2179C21.9131 12.1957 21.9532 12.1643 22.0062 12.1587C22.5363 12.1064 23.0837 12.0948 23.601 12.0186C23.6539 12.0111 23.7021 11.9723 23.7137 11.9445C23.7215 11.9297 23.6514 11.9021 23.6061 11.8892C23.5526 11.8744 23.4828 11.8597 23.4257 11.8635C21.7407 11.9888 20.0557 12.1161 18.3707 12.2414C18.1341 12.2601 18.134 12.2583 17.5625 12.4621C17.5139 12.4788 17.457 12.4973 17.3959 12.5029C17.1266 12.5254 16.8531 12.5386 16.5881 12.5665C16.372 12.5889 16.1917 12.5669 16.0349 12.5005C15.9234 12.4525 15.8085 12.4378 15.6697 12.4416C15.5145 12.4473 15.4128 12.4678 15.3241 12.5178C15.2072 12.5863 15.1479 12.675 14.8991 12.6937C13.7525 12.7743 12.606 12.864 11.4637 12.9501C11.3037 12.9243 11.2251 12.8856 11.2649 12.8393C11.2888 12.8116 11.337 12.7746 11.3859 12.7708C11.855 12.7316 12.3283 12.6979 12.7975 12.6605C12.8627 12.6549 12.9527 12.6585 12.9891 12.64C13.1669 12.5566 13.2292 12.4216 13.5682 12.4121C13.7643 12.4064 13.9639 12.3785 14.1513 12.3524C14.2042 12.345 14.2524 12.3061 14.264 12.2784C14.2677 12.2636 14.2017 12.2359 14.1523 12.223C13.9712 12.1696 13.7644 12.2345 13.5837 12.1977C13.522 12.1848 13.4357 12.1664 13.4229 12.1442C13.4143 12.1239 13.483 12.0905 13.5316 12.0702C13.5761 12.0516 13.637 12.0349 13.6981 12.0293C14.2366 11.9863 14.7752 11.9415 15.3139 11.9077C15.5343 11.8946 15.6885 11.8482 15.7845 11.7631C15.8566 11.7002 15.9458 11.6669 16.0845 11.6575C17.027 11.5882 17.9693 11.5116 18.916 11.4479C19.1527 11.4329 19.2739 11.3718 19.3702 11.2922C19.4463 11.2293 19.5357 11.207 19.6867 11.1958C21.0373 11.0985 22.3793 10.9901 23.73 10.8964C23.9789 10.8795 24.0506 10.8 24.1757 10.7315C24.2201 10.7074 24.2479 10.6778 24.3048 10.663C24.3617 10.6481 24.4353 10.6499 24.5047 10.6461C25.5818 10.5657 26.6588 10.4797 27.7402 10.4048C27.9932 10.3879 28.04 10.2954 28.1692 10.2306C28.2137 10.2102 28.2538 10.1769 28.3068 10.1714C29.1146 10.1078 29.9224 10.0479 30.7302 9.98617C31.2687 9.94502 31.8073 9.90386 32.3458 9.86455C32.6111 9.84583 32.611 9.84397 32.9666 9.66804C33.007 9.64767 33.0637 9.62358 33.1167 9.61799C34.667 9.49829 36.2132 9.38416 37.7636 9.2663C37.8941 9.25694 37.9871 9.21432 38.0511 9.15141C38.115 9.0885 38.208 9.0459 38.3345 9.03655C39.5462 8.94303 40.7579 8.85137 41.9738 8.76339C42.1941 8.74841 42.3484 8.7039 42.4445 8.62063C42.5166 8.55771 42.6057 8.52437 42.7445 8.515C43.9562 8.42518 45.1679 8.3298 46.3839 8.24367C46.6164 8.22683 46.7293 8.16388 46.842 8.08984C46.8823 8.06392 46.914 8.02137 46.963 8.01763C47.5666 7.96533 48.1662 7.91118 48.7743 7.87551C49.0273 7.8605 49.1114 7.78278 49.2118 7.70875C49.2922 7.64952 49.3857 7.62911 49.5409 7.62157C49.8797 7.60463 50.2141 7.57292 50.5444 7.54119C50.5933 7.5356 50.6537 7.49488 50.6571 7.469C50.6642 7.42093 50.5694 7.38773 50.4137 7.37124C48.798 7.49285 47.1783 7.61445 45.5627 7.73606C45.2975 7.75663 45.2975 7.75664 44.942 7.93258C44.9016 7.95295 44.8449 7.97703 44.7878 7.98263C43.2375 8.10048 41.6912 8.21649 40.1409 8.33434C40.0103 8.3437 39.9173 8.3863 39.8534 8.44921C39.7895 8.51211 39.6964 8.55471 39.5699 8.56407C38.0889 8.67632 36.608 8.79042 35.1228 8.89712C34.9025 8.91211 34.7482 8.95474 34.6521 9.03986C34.58 9.10278 34.4909 9.13614 34.3522 9.14551C32.9364 9.25031 31.5248 9.36063 30.1048 9.46173C29.962 9.4711 29.8545 9.41759 29.8615 9.36767C29.865 9.34179 29.9252 9.29924 29.9742 9.2955C30.7125 9.23383 31.4468 9.17031 32.1895 9.12343C32.4385 9.10841 32.5101 9.02701 32.6352 8.9585C32.6755 8.93444 32.7075 8.90298 32.7603 8.89C32.8172 8.87515 32.8908 8.87694 32.9602 8.87318C34.7104 8.74036 36.4607 8.6057 38.2152 8.48026C38.4682 8.46155 38.515 8.37092 38.6443 8.3061C38.6887 8.28388 38.7288 8.25058 38.7819 8.24684C39.3203 8.20199 39.8589 8.16268 40.3974 8.12337C41.3399 8.05228 42.2823 7.98118 43.2289 7.91009C43.5022 7.88951 43.5022 7.8895 43.8496 7.71542C43.89 7.69505 43.9467 7.66914 43.9997 7.66539C46.4925 7.47645 48.9853 7.2875 51.4782 7.1004C51.6087 7.09104 51.7017 7.04844 51.7656 6.98553C51.8296 6.92447 51.9225 6.88002 52.049 6.86882C55.419 6.61438 58.7849 6.35994 62.1549 6.1092C62.3752 6.09237 62.5296 6.0534 62.6256 5.96644C62.6936 5.90352 62.7869 5.87018 62.9256 5.85896C66.6301 5.58019 70.3347 5.30143 74.0433 5.02081C76.5361 4.83371 79.0289 4.64292 81.5218 4.45951C81.7503 4.44267 81.8715 4.38525 81.9841 4.30935C82.0203 4.28344 82.0561 4.24089 82.1051 4.23715C82.6394 4.19046 83.1738 4.14747 83.7082 4.10447C83.8769 4.15423 84.0456 4.20215 84.2143 4.2519C84.3394 4.18155 84.4604 4.10934 84.5854 4.03898C85.3934 3.98465 86.1884 3.90075 87.0052 3.87413C87.0583 3.87224 87.1163 3.90731 87.1739 3.92575C87.5568 4.04186 87.7732 4.03242 88.0107 3.87693C88.0952 3.8214 88.1676 3.77142 88.2981 3.76206C88.702 3.72842 89.1102 3.70587 89.5099 3.66669C89.726 3.64616 89.9062 3.66448 90.0631 3.73089C90.1745 3.77885 90.2895 3.79909 90.4241 3.78788C91.1667 3.73176 91.9051 3.67748 92.6476 3.61765C92.7006 3.61391 92.7489 3.58243 92.7892 3.56021C92.8739 3.51207 92.9463 3.46026 93.0269 3.41028C93.138 3.4416 93.2611 3.46553 93.352 3.50611C93.4676 3.55407 93.5738 3.55396 93.7288 3.54089C96.6907 3.31455 99.6569 3.09375 102.619 2.86556C102.872 2.84685 102.984 2.92439 103.157 2.96491C103.214 2.97964 103.272 2.99807 103.333 3.00171C103.399 3.00535 103.468 2.9942 103.533 2.9886C105.757 2.82023 107.98 2.6537 110.204 2.48533C110.497 2.46288 110.498 2.46288 110.938 2.57709C110.991 2.59183 111.061 2.60841 111.118 2.60281C112.13 2.52981 113.142 2.45127 114.149 2.37642C114.28 2.36706 114.391 2.39653 114.51 2.43894C114.745 2.52191 114.762 2.5219 114.93 2.39975C115.011 2.34237 115.096 2.30715 115.23 2.2904C115.377 2.27178 115.496 2.27724 115.611 2.31041C115.776 2.35647 115.896 2.43399 116.145 2.41343C117.222 2.32558 118.303 2.25252 119.376 2.16283C119.621 2.14227 119.753 2.205 119.917 2.25107C119.975 2.26765 120.029 2.29348 120.09 2.29897C120.152 2.30446 120.225 2.29145 120.29 2.28584C121.637 2.18481 122.987 2.08564 124.329 1.97721C124.582 1.95665 124.694 2.03602 124.867 2.07654C124.924 2.09127 124.99 2.11711 125.043 2.11336C125.851 2.05533 126.663 1.99358 127.471 1.93185C127.761 1.90941 127.761 1.91126 128.205 2.02362C128.258 2.03836 128.328 2.05309 128.385 2.04934C129.328 1.98009 130.274 1.909 131.217 1.8379C131.506 1.81546 131.506 1.81546 132.346 1.91083C132.408 1.91817 132.474 1.92922 132.535 1.92547C133.612 1.84501 134.693 1.76639 135.77 1.68038C135.986 1.66355 136.167 1.67817 136.323 1.74458C136.435 1.79254 136.55 1.81278 136.684 1.80157C137.896 1.7099 139.112 1.62193 140.32 1.52472C140.552 1.50602 140.704 1.54654 140.869 1.6C140.923 1.61843 140.976 1.64427 141.038 1.65161C141.099 1.65895 141.169 1.65149 141.234 1.64588C142.446 1.55421 143.661 1.46809 144.869 1.36903C145.114 1.34848 145.246 1.4112 145.411 1.45727C145.468 1.47385 145.53 1.50707 145.579 1.50518C146.053 1.47333 146.526 1.44519 146.995 1.39855C147.248 1.37244 147.36 1.45736 147.533 1.49787C147.59 1.51076 147.656 1.53844 147.709 1.5347C148.721 1.46169 149.733 1.385 150.741 1.30645C150.883 1.29523 150.99 1.31176 151.106 1.35972C151.258 1.42428 151.435 1.45 151.655 1.42947C152.124 1.38653 152.597 1.35653 153.071 1.32099C153.348 1.3004 153.348 1.30041 154.2 1.39576C154.262 1.4031 154.328 1.41413 154.389 1.41038C155.197 1.3505 156.009 1.29246 156.812 1.22704C157.028 1.20836 157.209 1.22483 157.366 1.29124C157.477 1.3392 157.588 1.35944 157.726 1.34823C158.469 1.2921 159.208 1.23598 159.95 1.17985C160.219 1.15928 160.488 1.1239 160.758 1.12366C160.954 1.12533 161.099 1.21393 161.276 1.25813C161.325 1.27103 161.407 1.25619 161.472 1.25243C162.415 1.18134 163.361 1.11578 164.299 1.03545C164.544 1.01489 164.676 1.07762 164.841 1.12369C164.899 1.14027 164.961 1.17349 165.01 1.1716C165.348 1.15096 165.683 1.12293 166.022 1.09859C166.425 1.06865 166.834 1.0461 167.233 1.00507C167.559 0.971506 167.686 1.13221 167.947 1.13752C168.148 1.14289 168.351 1.11128 168.551 1.09631C168.955 1.06637 169.359 1.03274 169.763 1.0065C169.906 0.997126 170.016 0.967438 170.059 0.900851C170.067 0.887904 169.997 0.860251 169.952 0.843655C169.403 0.655597 169.403 0.655588 168.857 0.696748C168.518 0.722932 168.184 0.749118 167.845 0.771605C167.788 0.775353 167.722 0.760625 167.665 0.749586C167.5 0.718308 167.516 0.681327 167.653 0.614656C167.791 0.547984 167.895 0.466562 168.012 0.390666C168.18 0.438577 168.345 0.486473 168.514 0.534384C168.648 0.52502 168.783 0.513824 168.918 0.50446C169.591 0.455792 170.264 0.405271 170.937 0.3603C170.986 0.356559 171.048 0.39348 171.106 0.411913C171.271 0.465373 171.419 0.51144 171.656 0.490893C172.259 0.436742 172.867 0.397375 173.471 0.350618C173.736 0.330046 173.736 0.330048 174.205 0.444236C174.258 0.457127 174.328 0.471854 174.385 0.468105C174.993 0.425041 175.597 0.37829 176.205 0.333378C176.336 0.324017 176.463 0.347933 176.558 0.401455C176.595 0.423604 176.588 0.460574 176.751 0.763589C177.239 1.00901 177.569 0.982842 177.904 0.960358C178.046 0.950987 178.173 0.941621 178.266 0.904567C178.315 0.884189 178.375 0.854553 178.375 0.830523C178.374 0.812038 178.284 0.782537 178.226 0.778892C177.821 0.742286 177.438 0.820279 177.042 0.837273C176.859 0.844832 176.698 0.780277 176.663 0.674942C176.654 0.645373 176.641 0.613961 176.628 0.584396C176.615 0.554831 176.606 0.523416 176.593 0.493851C176.433 0.484752 176.34 0.518104 176.272 0.581016C176.216 0.632825 176.136 0.692051 176.026 0.719878C175.916 0.749553 175.765 0.744154 175.63 0.753518C175.5 0.762878 175.357 0.787035 175.234 0.774206C175.112 0.759528 175.012 0.706001 174.897 0.67283C174.843 0.656242 174.777 0.632279 174.724 0.636024C174.255 0.667871 173.79 0.699704 173.325 0.74079C173.08 0.763193 172.956 0.685678 172.799 0.637756C172.676 0.600897 172.554 0.610238 172.535 0.695288C172.487 0.898671 172.677 0.983528 173.093 0.944335C173.435 0.910753 173.746 0.904945 174.018 1.0304C174.056 1.047 174.142 1.05432 174.195 1.05057C174.529 1.02809 174.86 1.00006 175.194 0.977577C175.255 0.973825 175.321 0.981148 175.379 0.988491C176.215 1.08756 176.215 1.08942 176.496 1.06698C176.631 1.05577 176.761 1.04641 176.742 0.765447C176.993 0.463909 177.401 0.443211 177.796 0.39849C178.053 0.370531 178.165 0.451769 178.334 0.494134C178.392 0.508871 178.454 0.538386 178.507 0.534641C179.384 0.47285 180.257 0.407356 181.13 0.338174C181.277 0.32695 181.383 0.337948 181.499 0.385906C181.648 0.446774 181.812 0.485454 182.044 0.463062C182.509 0.418278 182.983 0.39013 183.456 0.352734C183.697 0.334031 183.697 0.334013 184.186 0.448182C184.239 0.461074 184.309 0.4758 184.366 0.472052C184.839 0.4402 185.309 0.40097 185.778 0.367274C185.908 0.357914 186.028 0.383684 186.131 0.433501C186.234 0.483319 186.357 0.509085 186.484 0.499729C186.957 0.466029 187.426 0.428647 187.896 0.394951C187.953 0.391203 188.023 0.404079 188.076 0.416971C188.577 0.531129 188.577 0.53111 188.806 0.512419C189.14 0.48439 189.483 0.471156 189.813 0.433888C190.135 0.396627 190.305 0.50368 190.528 0.562634C191.131 0.519574 191.74 0.483913 192.339 0.431614C192.584 0.409212 192.716 0.470089 192.881 0.518003C192.938 0.534588 192.996 0.569662 193.049 0.567766C193.254 0.560188 193.453 0.539677 193.653 0.524709C193.853 0.509741 194.057 0.494771 194.257 0.479802C194.487 0.533203 194.641 0.658763 194.967 0.615954C195.163 0.589898 195.371 0.584165 195.571 0.569197C195.771 0.554228 195.975 0.539258 196.175 0.52429C196.31 0.514926 196.449 0.509247 196.579 0.492493C196.819 0.464548 196.94 0.555029 197.113 0.595542C197.17 0.60843 197.236 0.630539 197.289 0.626794C197.693 0.600551 198.101 0.578002 198.497 0.53513C198.803 0.501581 199.012 0.556856 199.231 0.634298C199.276 0.650894 199.354 0.660066 199.411 0.656317C199.884 0.624466 200.353 0.585214 200.823 0.551517C200.949 0.542161 201.073 0.571626 201.176 0.619595C201.283 0.669409 201.402 0.693351 201.533 0.683991C202.002 0.650294 202.475 0.612887 202.945 0.579191C203.002 0.575442 203.072 0.59017 203.125 0.604911C203.585 0.719106 203.586 0.720956 203.855 0.698531C203.92 0.692927 203.989 0.689153 204.055 0.683549C204.389 0.657368 204.736 0.647825 205.062 0.603167C205.437 0.552919 205.712 0.615524 205.981 0.72065C206.315 0.698166 206.658 0.684915 206.984 0.647651C207.229 0.619702 207.361 0.689824 207.526 0.73589C207.583 0.752475 207.646 0.785693 207.694 0.781952C208.168 0.7501 208.641 0.721956 209.106 0.675324C209.359 0.649217 209.471 0.732285 209.644 0.774646C209.701 0.789382 209.763 0.81522 209.816 0.811475C210.086 0.796444 210.355 0.774009 210.624 0.753432C210.938 0.729118 210.938 0.730965 211.358 0.843349C211.555 0.896779 211.751 0.854085 211.942 0.840972C212.146 0.826 212.338 0.81474 212.503 0.890382C212.607 0.938351 212.73 0.967817 212.857 0.960309C213.126 0.94343 213.399 0.926555 213.664 0.898588C213.876 0.876215 214.061 0.89083 214.218 0.959085C214.329 1.00705 214.444 1.03099 214.579 1.01978C215.183 0.974867 215.79 0.928089 216.394 0.885029C216.447 0.881285 216.521 0.897861 216.571 0.914454C216.686 0.947624 216.797 0.984486 216.908 1.02136C217.174 1.00448 217.447 0.99686 217.708 0.970746C217.986 0.944616 218.239 0.935143 218.458 1.03662C218.503 1.05876 218.569 1.09011 218.622 1.08821C218.827 1.08063 219.026 1.06197 219.226 1.047C219.426 1.03204 219.63 1.01707 219.83 1.0021C220.064 1.0481 220.215 1.18106 220.541 1.13825C220.736 1.11219 220.944 1.10646 221.144 1.09149C221.344 1.07652 221.548 1.0597 221.748 1.04658C221.813 1.04283 221.887 1.03351 221.944 1.04086C222.006 1.0482 222.059 1.07403 222.113 1.09247C222.278 1.14593 222.43 1.19941 222.662 1.16777C222.858 1.14172 223.066 1.13598 223.266 1.11916C223.54 1.09858 223.54 1.09859 223.996 1.21464C224.181 1.26253 224.388 1.1995 224.565 1.24001C224.684 1.26763 224.787 1.31374 224.902 1.34506C224.952 1.35795 225.029 1.36342 225.086 1.35967C225.356 1.34279 225.629 1.32592 225.894 1.29795C226.11 1.27558 226.291 1.29759 226.444 1.364C226.555 1.41196 226.666 1.43221 226.804 1.42099C227.478 1.36863 228.151 1.32364 228.82 1.26574C229.048 1.2452 229.233 1.27646 229.361 1.3429C229.58 1.45731 229.884 1.32209 230.111 1.41432C230.251 1.4715 230.392 1.53792 230.644 1.50996C231.109 1.46148 231.583 1.43516 232.052 1.40147C232.221 1.45123 232.389 1.501 232.562 1.55075C232.831 1.53018 233.101 1.50959 233.37 1.49086C233.57 1.47589 233.774 1.45907 233.974 1.44595C234.039 1.4422 234.108 1.43474 234.17 1.44392C234.232 1.45311 234.281 1.4771 234.339 1.49554C234.623 1.58586 234.623 1.58772 235.088 1.55033C235.288 1.53351 235.48 1.52225 235.649 1.59604C235.806 1.66429 235.99 1.67706 236.202 1.65653C236.602 1.6192 237.006 1.59111 237.414 1.56487C237.54 1.55551 237.66 1.58683 237.767 1.63479C237.928 1.71044 238.124 1.70287 238.324 1.68236C238.589 1.65624 238.85 1.63013 239.077 1.73344C239.123 1.75558 239.193 1.78693 239.242 1.78504C239.577 1.76995 239.916 1.75856 240.242 1.72314C240.568 1.68773 240.73 1.80219 240.956 1.85744C241.291 1.83311 241.629 1.80877 241.964 1.78444C242.029 1.77883 242.106 1.76214 242.164 1.77133C242.406 1.80993 242.548 1.94844 242.878 1.90562C243.07 1.88142 243.278 1.87385 243.478 1.86812C243.531 1.86623 243.602 1.89757 243.639 1.92157C243.66 1.93449 243.64 1.96963 243.616 1.98814C243.544 2.03996 243.455 2.08812 243.391 2.14178C243.383 2.14918 243.461 2.18237 243.506 2.19712C243.617 2.23029 243.744 2.22465 243.891 2.20973C244.017 2.19667 244.149 2.22243 244.24 2.27781C244.277 2.29996 244.266 2.33694 244.191 2.45901C244.193 2.54958 244.278 2.50883 244.305 2.44965C244.348 2.36458 244.262 2.33693 244.099 2.38329C243.986 2.41667 243.93 2.46479 243.959 2.50358C243.976 2.5239 244.054 2.54971 244.191 2.45901C244.548 2.34777 244.817 2.32721 245.087 2.30663C245.156 2.30102 245.237 2.28245 245.287 2.2935C245.463 2.3377 245.628 2.39117 245.801 2.44093C245.997 2.42966 246.18 2.40175 246.374 2.47367C246.646 2.5751 246.658 2.56585 246.919 2.54528C247.054 2.53406 247.188 2.52472 247.323 2.51535C247.458 2.50599 247.565 2.53361 247.684 2.57602C247.927 2.66269 247.948 2.66266 248.104 2.54421C248.197 2.47203 248.261 2.44795 248.381 2.48112C248.776 2.59352 248.78 2.60091 249.114 2.56733C249.392 2.53936 249.653 2.53173 249.86 2.63691C250.001 2.71072 250.045 2.69405 250.154 2.61631C250.443 2.41086 250.578 2.41443 251.133 2.56182C251.392 2.63183 251.656 2.55581 251.918 2.54633C252.138 2.53874 252.295 2.58295 252.314 2.69939C252.328 2.77147 252.366 2.82321 252.513 2.84711C252.571 2.8563 252.64 2.86917 252.698 2.86542C253.036 2.84293 253.371 2.81675 253.709 2.79057C253.881 2.77747 253.973 2.69052 253.937 2.57594C253.898 2.45398 253.962 2.40954 254.206 2.3742C254.353 2.35373 254.472 2.35734 254.591 2.3905C254.723 2.42735 254.687 2.46066 254.574 2.52731C254.304 2.69022 254.339 2.79 254.693 2.90244C254.817 2.94115 254.915 2.9762 254.945 3.03347C254.962 3.06303 254.947 3.10187 254.984 3.12402C255.187 3.24768 255.467 3.32693 255.779 3.3858C256.076 3.33562 256.283 3.41861 256.513 3.48495C256.694 3.53654 256.906 3.492 257.097 3.47334C257.313 3.45281 257.494 3.46743 257.651 3.53569C257.762 3.58365 257.877 3.60572 258.012 3.59636C258.281 3.57578 258.554 3.5626 258.819 3.53279C259.048 3.5067 259.22 3.54352 259.365 3.60624C259.546 3.68556 259.745 3.63177 259.934 3.64269C260.187 3.6554 260.318 3.8198 260.648 3.77514C260.844 3.74908 261.048 3.73966 261.252 3.73208C261.305 3.73018 261.371 3.76156 261.417 3.7837C261.636 3.88517 261.889 3.87939 262.166 3.84957C262.358 3.82906 262.545 3.81042 262.735 3.88049C263.048 3.99851 263.394 4.10173 263.724 4.2105C263.771 4.29549 263.74 4.39532 263.974 4.44502C264.097 4.47078 264.213 4.50952 264.308 4.55195C264.423 4.60175 264.53 4.6146 264.677 4.60153C264.942 4.57541 265.22 4.5696 265.481 4.53609C265.721 4.50629 265.874 4.56718 266.022 4.62435C266.142 4.67046 266.253 4.69253 266.395 4.65913C266.541 4.62757 266.648 4.6478 266.768 4.6976C266.937 4.76585 266.949 4.75845 267.505 4.77829C267.562 4.78008 267.633 4.80773 267.666 4.83173C267.682 4.84466 267.647 4.88168 267.618 4.90019C267.582 4.92241 267.526 4.94833 267.473 4.95392C266.869 5.00252 266.261 5.04559 265.657 5.09419C265.596 5.09979 265.531 5.11281 265.486 5.13133C265.438 5.15171 265.377 5.17947 265.378 5.20535C265.378 5.22384 265.46 5.24595 265.518 5.25884C265.699 5.3012 265.91 5.23631 266.087 5.28421C266.206 5.31553 266.305 5.3598 266.424 5.38927C266.474 5.40216 266.551 5.40025 266.612 5.3965C266.816 5.38337 267.016 5.36471 267.22 5.35344C267.278 5.35154 267.343 5.36997 267.397 5.38471C267.792 5.49527 267.792 5.49526 268.13 5.47093C268.265 5.46156 268.408 5.4337 268.534 5.44468C268.657 5.45566 268.765 5.50548 268.876 5.5368C269.106 5.60314 269.324 5.66764 269.344 5.81181C269.354 5.86726 269.49 5.91519 269.625 5.91877C269.755 5.92235 269.894 5.90191 270.029 5.89069C270.347 5.86822 270.347 5.86822 270.762 5.98061C270.877 6.01193 271 6.01551 271.147 5.99689C271.204 5.98945 271.274 5.99679 271.335 6.00598C271.536 6.03352 271.537 6.06864 271.408 6.1353C271.226 6.23344 271.242 6.24267 271.759 6.32539C271.956 6.35664 272.109 6.41566 272.274 6.46727C272.541 6.55021 272.537 6.5502 272.364 6.65942C272.324 6.68349 272.288 6.7094 272.247 6.73532C272.13 6.80752 272.038 6.88524 271.793 6.89285C271.524 6.90049 271.255 6.93032 270.985 6.95089C270.724 6.97146 270.656 7.01587 270.683 7.14155C270.715 7.2931 270.769 7.30969 271.239 7.30742C271.374 7.3073 271.493 7.32198 271.596 7.3718C271.548 7.43099 271.46 7.47729 271.329 7.4885C270.995 7.51652 270.656 7.54087 270.321 7.5652C270.052 7.58578 269.783 7.60634 269.514 7.62692C269.346 7.64001 269.242 7.73624 269.29 7.84341C269.316 7.90439 269.337 7.96537 269.359 8.02635C269.407 8.14831 269.494 8.17967 269.767 8.17388C269.837 8.17196 269.902 8.15711 269.967 8.16074C270.233 8.17344 270.364 8.32675 270.682 8.29504C270.947 8.26892 271.225 8.26313 271.485 8.22962C271.726 8.19983 271.862 8.26627 272.031 8.31603C272.089 8.33262 272.151 8.36766 272.2 8.36577C272.539 8.34513 272.877 8.32451 273.207 8.28909C273.362 8.27416 273.457 8.28516 273.58 8.32942C273.877 8.43636 273.885 8.43081 274.322 8.39714C274.64 8.37098 274.644 8.37467 275.055 8.48706C275.171 8.51838 275.293 8.51827 275.44 8.50335C275.632 8.48469 275.831 8.45493 276.032 8.48248C276.094 8.48982 276.172 8.51194 276.193 8.53595C276.205 8.55258 276.149 8.5933 276.1 8.60628C275.743 8.70273 275.322 8.68647 274.93 8.72564C274.808 8.73684 274.684 8.70183 274.581 8.65201C274.474 8.6022 274.359 8.58197 274.22 8.59134C273.951 8.61192 273.677 8.6251 273.412 8.65491C273.184 8.681 273.024 8.63862 272.863 8.58146C272.809 8.56302 272.747 8.52795 272.694 8.52985C272.09 8.56736 271.482 8.60489 270.882 8.65719C270.642 8.67959 270.501 8.62057 270.337 8.57081C270.279 8.55422 270.221 8.51915 270.168 8.52104C269.964 8.52862 269.764 8.54913 269.56 8.5641C268.818 8.62023 268.079 8.67635 267.336 8.72878C267.287 8.73252 267.225 8.69375 267.168 8.67716C267.056 8.64399 266.941 8.61266 266.826 8.58134C266.622 8.59632 266.422 8.61498 266.218 8.62625C266.071 8.63378 265.941 8.65979 265.922 8.73005C265.911 8.77627 266.047 8.81866 266.19 8.81484C266.329 8.81101 266.467 8.7887 266.582 8.81263C267.153 8.93042 267.153 8.93228 267.508 8.90793C267.818 8.88546 267.785 8.867 268.061 8.96842C268.181 9.01268 268.288 9.03848 268.422 9.02726C268.757 9.00108 269.096 8.97489 269.434 8.95241C269.487 8.94866 269.557 8.96709 269.611 8.98183C270.014 9.09238 270.014 9.09607 270.344 9.06805C270.777 9.03438 270.793 9.02513 271.086 9.13762C271.288 9.21508 271.47 9.16131 271.662 9.15744C271.885 9.22933 272.128 9.29382 272.33 9.37497C272.569 9.47088 272.818 9.454 273.087 9.42603C273.287 9.40552 273.483 9.39795 273.648 9.47359C273.805 9.5437 273.993 9.55093 274.205 9.53226C274.397 9.51545 274.592 9.48014 274.794 9.52063C274.847 9.53167 274.929 9.55933 274.926 9.57597C274.922 9.60186 274.87 9.63888 274.817 9.65002C274.443 9.72614 274.03 9.72466 273.634 9.76014C273.581 9.76573 273.511 9.74546 273.458 9.73072C273.343 9.69754 273.231 9.65883 273.12 9.62381C272.92 9.63508 272.716 9.63895 272.52 9.66131C272.37 9.67809 272.255 9.67636 272.144 9.63209C272.04 9.59152 271.929 9.5417 271.806 9.52887C271.683 9.51604 271.541 9.5439 271.406 9.55511C271.272 9.56632 271.116 9.5609 271.011 9.59058C270.905 9.62025 270.841 9.68501 270.773 9.73683C270.697 9.79421 270.591 9.8128 270.435 9.81848C270.293 9.82416 270.178 9.81686 270.071 9.7652C270.025 9.74306 269.963 9.72647 269.902 9.71173C269.844 9.69885 269.778 9.67856 269.725 9.68231C269.117 9.72537 268.513 9.77215 267.906 9.81706C267.604 9.83951 267.608 9.83949 266.976 9.731C266.918 9.72181 266.849 9.70893 266.791 9.71268C266.453 9.73517 266.118 9.76136 265.78 9.78754C265.437 9.81373 265.441 9.81003 264.854 9.6941C264.747 9.67201 264.592 9.70173 264.466 9.69815C264.2 9.68914 264.065 9.53399 263.755 9.56385C263.49 9.58996 263.212 9.59576 262.948 9.62927C262.707 9.65906 262.567 9.59449 262.402 9.54473C262.344 9.52815 262.282 9.49123 262.233 9.49497C261.625 9.53618 261.021 9.58294 260.212 9.58922C260.012 9.5894 260.103 9.62814 260.234 9.64096C260.422 9.66113 260.483 9.62225 260.379 9.5484C260.304 9.49671 260.197 9.47091 260.112 9.48393C260.067 9.49136 260.011 9.52655 260.212 9.58922C260.426 9.65927 260.415 9.69809 260.452 9.72024C260.544 9.77376 260.671 9.79583 260.802 9.78832C261.006 9.7752 261.205 9.75654 261.409 9.74526C261.467 9.74151 261.536 9.75439 261.59 9.76913C262.042 9.88333 262.046 9.89073 262.524 9.84594C262.674 9.83286 262.785 9.83276 262.904 9.86777C263.069 9.91569 263.189 9.99691 263.438 9.9708C263.768 9.93538 264.107 9.91476 264.446 9.89412C264.499 9.89038 264.557 9.9236 264.618 9.93833C264.787 9.98254 264.911 10.0656 265.16 10.0303C265.351 10.0024 265.56 9.99477 265.764 9.98904C265.817 9.98714 265.899 10.0167 265.924 10.0407C265.974 10.0831 265.914 10.1331 265.776 10.1684C265.719 10.1832 265.642 10.1796 265.576 10.1852C265.307 10.2057 265.038 10.2282 264.769 10.245C264.626 10.2544 264.492 10.2823 264.477 10.3507C264.466 10.3969 264.614 10.4374 264.753 10.4336C264.957 10.4279 265.161 10.4129 265.356 10.3887C265.703 10.3477 266.006 10.3585 266.29 10.4747C266.492 10.5559 266.479 10.5263 266.698 10.7665C266.752 10.8274 266.912 10.8328 267.051 10.829C267.386 10.8194 267.541 10.847 267.514 10.9044C267.479 10.9746 267.361 10.9969 267.21 11.0063C266.941 11.0213 266.671 11.0456 266.402 11.0662C266.337 11.0718 266.264 11.0829 266.202 11.0793C266.141 11.0756 266.083 11.0535 266.03 11.0369C265.914 11.0019 265.815 10.9484 265.692 10.9356C265.569 10.9227 265.427 10.9506 265.292 10.9618C265.158 10.9712 265.015 10.999 264.892 10.9862C264.769 10.9734 264.666 10.918 264.555 10.8848C264.501 10.8683 264.435 10.8424 264.382 10.8443C264.113 10.8593 263.844 10.8836 263.574 10.9024C263.244 10.9267 263.244 10.9267 262.841 10.8124C262.725 10.7793 262.607 10.7812 262.456 10.7962C262.13 10.826 262.125 10.8205 261.526 10.7138C261.469 10.7028 261.399 10.6899 261.342 10.6955C260.734 10.7385 260.13 10.7853 259.526 10.8302C259.008 10.8695 259.008 10.8695 258.726 11.0546C258.517 11.1916 258.513 11.1916 258.723 11.2542C258.892 11.3059 259.045 11.3815 259.229 11.4091C259.401 11.4348 259.612 11.3514 259.802 11.4363C259.897 11.4787 260.021 11.5248 260.139 11.5321C260.328 11.5412 260.527 11.4874 260.708 11.5686C260.799 11.6091 260.935 11.6515 261.05 11.6533C261.25 11.6568 261.454 11.627 261.654 11.6139C261.715 11.6102 261.784 11.6101 261.842 11.6193C261.903 11.6303 261.957 11.6525 262.011 11.6709C262.175 11.7336 262.352 11.763 262.564 11.7314C262.91 11.6793 263.221 11.7049 263.494 11.823C263.531 11.8396 263.621 11.8414 263.678 11.8339C263.825 11.8153 263.951 11.8133 264.062 11.8484C264.108 11.8631 264.174 11.8889 264.166 11.9056C264.154 11.9333 264.106 11.9703 264.053 11.9796C263.67 12.0428 263.258 12.0506 262.862 12.0842C262.809 12.088 262.743 12.064 262.69 12.0474C262.574 12.0142 262.475 11.9589 262.352 11.946C262.229 11.9332 262.087 11.9574 261.952 11.9667C261.817 11.9761 261.675 12.0039 261.552 11.993C261.429 11.9801 261.314 11.934 261.215 11.8934C261.099 11.8473 260.989 11.8419 260.838 11.8605C260.642 11.8847 260.438 11.8886 260.238 11.9017C260.127 11.8667 260.016 11.828 259.9 11.7948C259.847 11.7782 259.781 11.7579 259.724 11.7598C259.454 11.7749 259.185 11.7973 258.916 11.8179C258.647 11.8384 258.647 11.8385 258.186 11.7243C258.133 11.7114 258.063 11.6966 258.006 11.7004C257.667 11.7229 257.333 11.7509 256.994 11.7734C256.863 11.7827 256.744 11.757 256.637 11.7072C256.534 11.6573 256.41 11.6297 256.284 11.6391C255.745 11.6784 255.207 11.7158 254.668 11.7625C254.452 11.7812 254.268 11.7648 254.119 11.6983C253.945 11.6227 253.754 11.6414 253.554 11.6563C253.101 11.6937 253.097 11.6919 252.805 11.5978C252.747 11.5794 252.689 11.5443 252.636 11.5462C252.167 11.5744 251.693 11.6007 251.228 11.6455C250.984 11.6697 250.851 11.6052 250.687 11.5572C250.629 11.5407 250.567 11.5056 250.518 11.5093C250.179 11.53 249.84 11.5488 249.51 11.586C249.18 11.6233 249.049 11.4515 248.8 11.4536C248.461 11.4557 248.127 11.4986 247.792 11.5247C247.523 11.5453 247.254 11.5659 246.984 11.5865C246.715 11.607 246.446 11.6239 246.177 11.6482C246.034 11.6612 245.927 11.6447 245.808 11.5986C245.655 11.5377 245.474 11.4899 245.309 11.4345C245.058 11.3553 245.058 11.3553 244.756 11.3777C244.691 11.3833 244.621 11.3871 244.556 11.3927C244.063 11.4338 244.062 11.4301 243.43 11.3142C243.402 11.3087 243.328 11.3291 243.3 11.3439C243.216 11.3921 243.139 11.4439 243.063 11.4939C242.952 11.4644 242.816 11.4479 242.742 11.4054C242.531 11.2855 242.207 11.4503 241.992 11.3321C241.913 11.2879 241.778 11.2492 241.655 11.2382C241.528 11.2272 241.385 11.2532 241.255 11.2644C240.916 11.2925 240.916 11.2906 240.63 11.4554C240.485 11.5369 240.272 11.5222 240.08 11.5409C239.88 11.5614 239.688 11.5727 239.519 11.497C239.366 11.4288 239.182 11.4123 238.966 11.4347C238.701 11.4627 238.428 11.4795 238.158 11.4964C238.101 11.5002 238.031 11.491 237.974 11.48C237.346 11.3715 237.346 11.3696 237.044 11.3939C236.909 11.4051 236.771 11.4089 236.64 11.4257C236.42 11.4555 236.252 11.4168 236.091 11.3578C236.037 11.3394 235.975 11.3043 235.922 11.3062C235.653 11.3157 235.387 11.3326 235.122 11.3494C234.918 11.3626 234.714 11.3701 234.518 11.3962C234.192 11.439 234.03 11.319 233.804 11.2637C233.469 11.2881 233.131 11.305 232.796 11.3386C232.641 11.3535 232.539 11.3481 232.419 11.3038C232.267 11.2485 232.126 11.1858 231.882 11.2137C231.556 11.251 231.213 11.2642 230.878 11.2867C230.652 11.2296 230.486 11.1133 230.164 11.1561C229.968 11.1821 229.76 11.1879 229.56 11.2028C229.291 11.2234 229.022 11.2422 228.752 11.2646C228.463 11.287 228.467 11.2815 228.019 11.1728C227.76 11.1084 227.496 11.1807 227.234 11.192C227.03 11.2014 226.93 11.2866 226.982 11.3956C227.033 11.5046 226.925 11.5897 226.737 11.6047C226.268 11.6402 225.795 11.6776 225.325 11.7095C225.268 11.7132 225.199 11.7003 225.145 11.6874C224.64 11.5714 224.64 11.5733 224.415 11.5901C224.081 11.6182 223.738 11.6333 223.408 11.6687C223.179 11.6929 223.011 11.6543 222.862 11.5915C222.747 11.5436 222.64 11.5326 222.493 11.5438C220.878 11.6691 219.262 11.7852 217.651 11.9142C217.41 11.9329 217.27 11.8794 217.105 11.8296C217.047 11.8131 216.993 11.778 216.936 11.778C216.801 11.7781 216.667 11.7949 216.532 11.8061C215.928 11.851 215.325 11.9052 214.717 11.939C214.46 11.954 214.392 12.0391 214.283 12.1095C214.199 12.1631 214.101 12.1854 213.95 12.1929C213.803 12.2005 213.697 12.1913 213.581 12.1434C213.433 12.0806 213.264 12.042 213.036 12.068C212.771 12.0979 212.501 12.1111 212.228 12.1316C212.089 12.141 211.984 12.1744 211.94 12.241C211.932 12.2521 212.019 12.2797 212.068 12.2963C212.233 12.3516 212.39 12.4162 212.575 12.4548C212.764 12.4935 212.967 12.4489 213.163 12.4376C213.232 12.4339 213.298 12.4227 213.363 12.4245C213.424 12.4263 213.498 12.4355 213.543 12.4521C213.758 12.5351 213.984 12.5922 214.277 12.542C214.531 12.5658 214.666 12.7191 214.987 12.6782C215.183 12.654 215.387 12.6427 215.591 12.6333C215.644 12.6314 215.702 12.6646 215.76 12.6812C215.925 12.7272 216.057 12.8011 216.302 12.7694C216.562 12.7359 216.84 12.7301 217.105 12.704C217.252 12.6891 217.358 12.7019 217.474 12.7499C217.623 12.8107 217.791 12.8568 218.019 12.827C218.215 12.801 218.423 12.7952 218.623 12.7784C218.884 12.7578 218.884 12.7597 219.353 12.8739C219.406 12.8868 219.476 12.9015 219.533 12.8977C219.872 12.8753 220.207 12.8472 220.545 12.8247C220.676 12.8154 220.803 12.8393 220.894 12.8928C220.932 12.915 220.92 12.952 220.933 12.9834C220.26 13.0339 219.587 13.077 218.918 13.1386C218.665 13.1629 218.549 13.0872 218.38 13.0448C218.323 13.0301 218.261 12.9987 218.207 13.0025C217.734 13.0343 217.265 13.068 216.796 13.1091C216.649 13.1222 216.539 13.1149 216.427 13.0614C216.142 12.9193 215.8 12.9972 215.482 13.0178C215.237 13.0329 215.161 13.0902 215.192 13.2122C215.232 13.3564 215.38 13.4006 215.756 13.3744C215.89 13.365 216.025 13.352 216.16 13.3444C216.29 13.3369 216.409 13.3608 216.517 13.4107C216.62 13.4605 216.743 13.4862 216.87 13.4787C217.139 13.4619 217.413 13.445 217.674 13.417C217.89 13.3946 218.07 13.413 218.223 13.4812C218.392 13.5569 218.588 13.54 218.784 13.5232C219.241 13.4858 219.245 13.4877 219.533 13.5799C219.591 13.5983 219.649 13.6334 219.702 13.6315C220.171 13.6033 220.645 13.5789 221.106 13.5341C221.346 13.5117 221.487 13.5707 221.647 13.6186C221.705 13.6352 221.763 13.6721 221.816 13.6684C222.154 13.6478 222.493 13.6271 222.823 13.5917C222.978 13.5749 223.073 13.5859 223.2 13.6302C223.505 13.7389 223.513 13.7352 223.942 13.6997C224.072 13.6885 224.215 13.6681 224.338 13.6828C224.461 13.6974 224.56 13.751 224.675 13.7841C224.729 13.7989 224.795 13.8191 224.852 13.8154C225.121 13.8003 225.39 13.7779 225.66 13.7574C225.913 13.7368 225.913 13.7386 226.389 13.8528C226.583 13.9007 226.782 13.8599 226.974 13.8449C227.182 13.8281 227.37 13.8279 227.531 13.8999C227.692 13.9718 227.884 13.9679 228.088 13.953C228.28 13.938 228.475 13.8972 228.672 13.9469C229.125 14.0611 229.125 14.0629 229.402 14.0405C229.806 14.0087 230.206 13.9788 230.614 13.9507C230.667 13.9469 230.737 13.9691 230.79 13.9838C230.905 14.017 231.005 14.0723 231.128 14.0852C231.251 14.0998 231.393 14.0775 231.524 14.0663C231.944 14.0308 231.972 14.0179 232.257 14.1396C232.497 14.2392 232.787 14.0948 233.011 14.2092C233.139 14.2738 233.312 14.3254 233.548 14.2937C233.744 14.2677 233.948 14.2601 234.152 14.2451C234.474 14.2208 234.474 14.2227 234.886 14.3332C234.939 14.3479 235.009 14.3663 235.062 14.3626C235.331 14.3476 235.605 14.3344 235.866 14.3009C236.171 14.2618 236.369 14.3319 236.6 14.4001C236.781 14.4535 236.992 14.4089 237.184 14.3903C237.392 14.3716 237.58 14.377 237.737 14.4489C237.902 14.5227 238.094 14.5133 238.298 14.4983C238.49 14.4852 238.685 14.4425 238.882 14.4941C239.306 14.6083 239.306 14.6083 239.612 14.5859C239.881 14.5653 240.151 14.5429 240.42 14.5279C240.473 14.5241 240.539 14.5481 240.593 14.5647C240.708 14.5978 240.807 14.6532 240.93 14.666C241.053 14.6789 241.195 14.6547 241.33 14.6453C241.465 14.636 241.607 14.6081 241.73 14.6191C241.853 14.6301 241.968 14.6762 242.067 14.7168C242.183 14.7647 242.289 14.7702 242.444 14.7515C242.64 14.7273 242.844 14.7216 243.044 14.7085C243.155 14.7435 243.271 14.7785 243.378 14.8173C243.489 14.8578 243.607 14.854 243.758 14.8409C244.26 14.7961 244.264 14.8017 244.688 14.9159C244.881 14.9675 245.081 14.9248 245.272 14.9117C245.476 14.8967 245.668 14.8891 245.829 14.9629C245.986 15.033 246.179 15.0421 246.382 15.0197C246.513 15.0048 246.652 14.9955 246.786 14.9898C246.848 14.9879 246.921 14.9952 246.967 15.01C247.185 15.0874 247.399 15.1575 247.696 15.1073C247.958 15.1219 248.093 15.2733 248.407 15.2435C248.672 15.2173 248.95 15.2115 249.21 15.178C249.451 15.1482 249.624 15.1998 249.748 15.2644C249.971 15.3788 250.278 15.2233 250.502 15.3358C250.63 15.4004 250.794 15.452 251.039 15.4241C251.308 15.3943 251.395 15.433 251.475 15.5494C251.522 15.6159 251.515 15.6695 251.434 15.7213C251.354 15.775 251.264 15.7659 251.131 15.705C250.979 15.6367 250.798 15.6239 250.582 15.6389C250.37 15.6539 250.237 15.5579 250.06 15.5211C249.884 15.4824 249.677 15.5473 249.492 15.4976C249.056 15.3815 249.056 15.3815 248.762 15.404C248.562 15.4189 248.354 15.4265 248.158 15.4526C247.926 15.4842 247.773 15.427 247.613 15.3754C247.555 15.357 247.497 15.3219 247.448 15.3238C246.979 15.3519 246.505 15.3783 246.04 15.4249C245.796 15.4491 245.663 15.3827 245.499 15.3366C245.441 15.3201 245.379 15.2868 245.33 15.2906C244.926 15.3168 244.526 15.3505 244.123 15.3822C244.046 15.4322 243.961 15.4804 243.889 15.534C243.813 15.5896 243.707 15.6137 243.552 15.612C243.294 15.6122 243.043 15.6901 242.783 15.5923C242.515 15.4928 242.495 15.4983 242.238 15.5226C241.911 15.5543 241.564 15.5472 241.259 15.6196C241.206 15.6326 241.15 15.6677 241.15 15.6936C241.147 15.7103 241.233 15.7342 241.287 15.749C241.467 15.7932 241.674 15.7283 241.855 15.7743C241.974 15.8038 242.074 15.8481 242.193 15.8794C242.242 15.8923 242.316 15.8904 242.381 15.8885C242.451 15.8866 242.516 15.8736 242.581 15.8754C242.642 15.8771 242.708 15.8882 242.758 15.9048C242.984 15.9748 243.222 16.0393 243.425 16.1223C243.623 16.2035 243.805 16.1478 244.001 16.144C244.789 16.2726 244.789 16.2745 245.316 16.2334C245.446 16.224 245.581 16.2128 245.716 16.2145C245.773 16.2145 245.827 16.2477 245.884 16.2661C246.049 16.3214 246.206 16.3712 246.434 16.3414C246.629 16.3153 246.838 16.3096 247.038 16.2928C247.307 16.2722 247.307 16.2722 247.767 16.3883C247.883 16.4177 248.005 16.4139 248.152 16.399C248.278 16.386 248.41 16.4136 248.501 16.4671C248.538 16.4893 248.527 16.5262 248.54 16.5576C248.136 16.5876 247.728 16.6083 247.336 16.653C247.084 16.681 246.967 16.6016 246.799 16.5592C246.741 16.5445 246.679 16.5131 246.626 16.5169C246.226 16.5449 245.826 16.5767 245.427 16.614C245.378 16.6178 245.317 16.6604 245.314 16.6862C245.307 16.7343 245.41 16.7804 245.557 16.7784C245.753 16.7764 245.945 16.7448 246.122 16.8204C246.271 16.8869 246.456 16.9163 246.671 16.8865C246.802 16.8698 246.941 16.8696 247.071 16.8547C247.418 16.8101 247.733 16.819 247.997 16.9445C248.198 16.9776 248.394 16.946 248.585 16.9292C248.728 16.9161 248.867 16.903 248.97 16.938C249.188 17.0118 249.402 17.0855 249.699 17.0354C250.024 17.0868 250.271 17.1957 250.543 17.2842C250.671 17.3266 250.77 17.3505 250.916 17.3227C250.977 17.3115 251.051 17.3114 251.116 17.3058C251.251 17.2965 251.393 17.2686 251.516 17.2796C251.639 17.2924 251.742 17.3459 251.853 17.3791C251.907 17.3957 251.969 17.4234 252.022 17.4215C252.226 17.412 252.426 17.3934 252.626 17.3784C252.826 17.3653 253.026 17.3522 253.226 17.3391C253.394 17.387 253.567 17.4349 253.736 17.4828C254.005 17.4622 254.274 17.4416 254.54 17.4229C254.837 17.4005 254.837 17.4023 255.269 17.5165C255.462 17.5681 255.666 17.5346 255.849 17.5105C256.155 17.4714 256.361 17.5414 256.579 17.6152C256.625 17.6299 256.707 17.6391 256.76 17.6316C256.972 17.6056 257.156 17.6257 257.313 17.694C257.424 17.7419 257.535 17.764 257.67 17.7547C258.139 17.7191 258.608 17.6817 259.077 17.6499C259.135 17.6461 259.2 17.6627 259.254 17.6775C259.673 17.7898 259.678 17.7954 259.983 17.7655C260.257 17.7394 260.51 17.7281 260.729 17.8296C260.774 17.8517 260.844 17.8831 260.893 17.8812C261.228 17.8624 261.567 17.8417 261.897 17.81C262.048 17.7951 262.155 17.8006 262.274 17.843C262.427 17.8964 262.563 17.961 262.812 17.9368C263.501 17.8677 263.505 17.8788 264.326 18.0056C264.383 18.0148 264.46 18 264.525 17.9925C264.664 17.9739 264.767 17.9997 264.89 18.0421C265.166 18.138 265.174 18.1324 265.436 18.1119C265.635 18.095 265.844 18.0911 266.039 18.0632C266.341 18.0223 266.543 18.0942 266.769 18.1624C266.95 18.2159 267.158 18.1713 267.349 18.1545C267.557 18.1358 267.746 18.1412 267.902 18.2113C268.01 18.2593 268.125 18.285 268.26 18.2757C268.729 18.242 269.198 18.2046 269.667 18.1709C269.724 18.1671 269.794 18.1819 269.848 18.1948C270.316 18.3089 270.316 18.3145 270.777 18.2716C270.924 18.2585 271.046 18.2547 271.158 18.2934C271.265 18.3303 271.38 18.3653 271.491 18.4003C271.691 18.3872 271.896 18.3833 272.091 18.361C272.242 18.3442 272.348 18.3515 272.468 18.3902C272.624 18.44 272.757 18.5267 273.001 18.484C273.128 18.4635 273.275 18.469 273.401 18.4504C273.552 18.4262 273.654 18.4409 273.774 18.4888C273.923 18.546 274.075 18.605 274.311 18.5752C274.572 18.5417 274.85 18.5359 275.115 18.5098C275.262 18.4949 275.364 18.5096 275.484 18.5575C275.633 18.6184 275.801 18.6571 276.029 18.6328C276.494 18.5862 276.498 18.5954 276.955 18.7115C277.07 18.741 277.193 18.7372 277.339 18.7222C277.466 18.7092 277.597 18.7368 277.688 18.7903C277.776 18.8494 277.768 18.8864 277.777 18.9178ZM240.966 2.2789C240.831 2.28827 240.697 2.29948 240.497 2.13884C240.484 2.11112 240.491 2.07785 240.462 2.05384C240.396 2.00399 240.293 1.96896 240.17 1.96353C239.949 1.95633 239.685 2.01941 239.69 2.06747C239.695 2.10813 239.765 2.14318 239.901 2.17633C239.959 2.18922 240.004 2.21137 240.058 2.22611C240.214 2.26848 240.338 2.35157 240.562 2.30885C240.519 2.19428 240.54 2.25157 240.562 2.30885C240.543 2.37911 240.606 2.42897 240.753 2.44917C240.794 2.45468 240.856 2.45092 240.888 2.4398C241.014 2.39902 241.033 2.34355 240.936 2.19761C240.92 2.22165 240.933 2.26414 240.97 2.2752C241.007 2.28626 241.097 2.27695 241.141 2.26397C241.255 2.22874 241.311 2.18247 241.282 2.14368C241.265 2.12336 241.187 2.09755 241.138 2.0976C241.052 2.09767 240.975 2.13841 240.966 2.2789ZM274.517 23.6863C274.22 23.7217 273.876 23.709 273.58 23.7814C273.527 23.7944 273.474 23.8277 273.471 23.8536C273.467 23.8702 273.55 23.8942 273.599 23.9071C273.71 23.9366 273.832 23.9272 273.975 23.9178C274.191 23.9047 274.32 23.9896 274.489 24.032C274.542 24.0449 274.612 24.054 274.669 24.0503C274.999 24.0278 275.326 24.0035 275.656 23.9773C275.713 23.9717 275.774 23.9587 275.823 23.942C275.985 23.8883 275.968 23.8532 275.808 23.8127C275.631 23.7685 275.49 23.6946 275.31 23.6597C275.051 23.61 274.791 23.6768 274.517 23.6863ZM251.339 25.0566C251.139 25.0715 250.943 25.0865 250.743 25.1015C250.678 25.1071 250.608 25.109 250.547 25.1164C250.421 25.1295 250.328 25.1684 250.268 25.2294C250.363 25.2774 250.478 25.305 250.605 25.2994C250.805 25.2881 251 25.2639 251.2 25.2582C251.417 25.2506 251.546 25.3337 251.714 25.376C251.768 25.3889 251.833 25.3907 251.894 25.3925C252.197 25.3996 252.379 25.3033 252.318 25.1685C252.275 25.0631 252.118 25.0004 251.93 25.0135C251.735 25.0267 251.535 25.0416 251.339 25.0566ZM275.851 20.9529C275.899 20.9214 275.952 20.8992 275.976 20.8715C276.047 20.7771 276.017 20.7069 275.88 20.6331C275.715 20.5427 275.516 20.6039 275.332 20.6133C275.287 20.6151 275.239 20.654 275.215 20.6781C275.199 20.6947 275.2 20.7298 275.225 20.7391C275.427 20.8128 275.641 20.881 275.851 20.9529ZM240.268 15.5244C240.072 15.5393 239.872 15.5506 239.676 15.5711C239.627 15.5767 239.583 15.6119 239.555 15.6359C239.503 15.6803 239.562 15.7413 239.729 15.7467C239.922 15.7539 240.121 15.7223 240.321 15.7073C240.574 15.6886 240.724 15.6201 240.628 15.561C240.537 15.5038 240.414 15.4928 240.268 15.5244ZM25.0378 11.7677C25.1684 11.7584 25.3031 11.7509 25.4336 11.7378C25.5559 11.7248 25.649 11.684 25.7089 11.6229C25.6056 11.575 25.4905 11.5492 25.3639 11.5549C25.1639 11.5661 24.9681 11.5811 24.7724 11.5998C24.65 11.611 24.5325 11.6517 24.5053 11.7146C24.4779 11.7627 24.7523 11.7902 25.0378 11.7677ZM222.884 11.305C222.938 11.3216 222.992 11.3548 223.045 11.3548C223.175 11.3546 223.31 11.3434 223.432 11.3248C223.485 11.3174 223.525 11.2841 223.549 11.2582C223.565 11.2415 223.56 11.212 223.536 11.1972C223.415 11.1086 222.942 11.1404 222.866 11.2422C222.859 11.2606 222.88 11.2847 222.884 11.305ZM209.752 1.19417C209.765 1.22374 209.77 1.25331 209.787 1.28287C209.821 1.33829 209.911 1.37889 210.043 1.4065C210.144 1.36019 210.196 1.30839 210.191 1.25294C210.186 1.22337 210.173 1.19379 210.156 1.16423C210.122 1.1088 210.031 1.06823 209.899 1.04062C209.798 1.08507 209.75 1.13687 209.752 1.19417ZM285.399 25.3476C285.363 25.3716 285.327 25.3957 285.287 25.4179C285.398 25.4714 285.501 25.488 285.578 25.4583C285.626 25.4398 285.654 25.412 285.691 25.388C285.579 25.3345 285.481 25.3198 285.399 25.3476ZM282.863 25.6013C282.917 25.6178 282.966 25.64 283.024 25.651C283.118 25.6694 283.203 25.6379 283.267 25.5713C283.214 25.5547 283.164 25.5326 283.107 25.5215C283.012 25.5031 282.927 25.5346 282.863 25.6013ZM284.466 25.2615C284.438 25.3059 284.496 25.3428 284.648 25.3741C284.684 25.3501 284.733 25.3278 284.757 25.3019C284.797 25.2594 284.726 25.2206 284.578 25.1912C284.538 25.2134 284.502 25.2375 284.466 25.2615ZM275.791 23.2766C275.763 23.321 275.822 23.3579 275.973 23.3892C276.01 23.3651 276.058 23.3429 276.082 23.317C276.122 23.2745 276.052 23.2357 275.904 23.2063C275.864 23.2285 275.827 23.2525 275.791 23.2766ZM263.73 10.2072C263.693 10.2312 263.657 10.2553 263.617 10.2775C263.728 10.331 263.831 10.3476 263.908 10.3179C263.956 10.2994 263.984 10.2716 264.021 10.2476C263.909 10.1941 263.811 10.1794 263.73 10.2072ZM252.307 3.278C252.405 3.29085 252.486 3.26491 252.554 3.19645C252.501 3.17986 252.451 3.15772 252.394 3.14668C252.299 3.12828 252.214 3.15979 252.15 3.22639C252.204 3.24483 252.257 3.2614 252.307 3.278ZM246.317 2.84898C246.281 2.87305 246.245 2.89711 246.204 2.91933C246.316 2.97284 246.419 2.98938 246.496 2.95973C246.544 2.9412 246.572 2.91345 246.608 2.88938C246.497 2.83588 246.398 2.82303 246.317 2.84898ZM205.73 1.19594C205.694 1.22001 205.658 1.24407 205.617 1.26629C205.729 1.3198 205.832 1.33634 205.909 1.30669C205.957 1.28816 205.985 1.26041 206.021 1.23634C205.91 1.18283 205.811 1.16999 205.73 1.19594ZM4.18831 16.4171C4.13479 16.4005 4.08131 16.3839 4.03183 16.3655C3.91448 16.4155 3.8788 16.4617 3.94501 16.4968C3.98641 16.519 4.04797 16.5318 4.10149 16.5484C4.22293 16.4984 4.25048 16.454 4.18831 16.4171Z" fill="url(#paint0_linear_453_3513)"/>
<defs>
<linearGradient id="paint0_linear_453_3513" x1="0.195369" y1="18.1621" x2="295.045" y2="11.2363" gradientUnits="userSpaceOnUse">
<stop stop-color="#9966CC"/>
<stop offset="0.515625" stop-color="#B989F7"/>
<stop offset="1" stop-color="#79DBF2"/>
</linearGradient>
</defs>
</svg>
