<svg width="18" height="13" viewBox="0 0 18 13" fill="none" xmlns="http://www.w3.org/2000/svg">
<path d="M17.0386 5.99158L11.2711 0.224193C10.9905 -0.0565017 10.5354 -0.0565017 10.2547 0.224193C9.97401 0.504887 9.97401 0.959968 10.2547 1.24066L14.821 5.80697H0.707478C0.324834 5.80697 0.0146484 6.11718 0.0146484 6.4998C0.0146484 6.88245 0.324856 7.19263 0.707478 7.19263H14.821L10.2547 11.759C9.97401 12.0396 9.97401 12.4947 10.2547 12.7754C10.395 12.9158 10.579 12.9859 10.7629 12.9859C10.9469 12.9859 11.1308 12.9158 11.2711 12.7754L17.0386 7.00802C17.1053 6.94128 17.1582 6.86205 17.1944 6.77485C17.2305 6.68765 17.2491 6.59419 17.2491 6.4998C17.2491 6.40541 17.2305 6.31195 17.1944 6.22475C17.1582 6.13755 17.1053 6.05832 17.0386 5.99158Z" fill="#767EE5"/>
</svg>
