<svg width="25" height="25" viewBox="0 0 25 25" fill="none" xmlns="http://www.w3.org/2000/svg">
<path d="M0.0634766 13.0338C0.0634766 18.4782 3.55268 23.1072 8.41572 24.8066C9.07092 24.973 8.97108 24.505 8.97108 24.1888V22.0288C5.18964 22.4718 5.03884 19.9696 4.783 19.5525C4.26924 18.6758 3.05868 18.4522 3.41956 18.0352C4.28068 17.5921 5.15844 18.1475 6.17348 19.6503C6.90876 20.7392 8.34292 20.5551 9.07196 20.3731C9.22841 19.7283 9.56366 19.1407 10.0392 18.6779C6.12252 17.9769 4.48868 15.586 4.48868 12.7416C4.48868 11.3625 4.9442 10.0948 5.83548 9.0714C5.26764 7.38452 5.88852 5.94204 5.97068 5.7278C7.591 5.5822 9.27164 6.8874 9.40268 6.98932C10.3231 6.74076 11.3724 6.60972 12.5466 6.60972C13.727 6.60972 14.7826 6.74492 15.7082 6.9966C16.0202 6.7574 17.5823 5.63732 19.0882 5.7746C19.1683 5.98884 19.7746 7.39804 19.2411 9.061C20.1448 10.0864 20.6045 11.3656 20.6045 12.7488C20.6045 15.5974 18.9613 17.9904 15.0332 18.6831C15.3697 19.0145 15.6367 19.4095 15.8188 19.8452C16.001 20.2809 16.0945 20.7485 16.094 21.2207V24.3563C16.1159 24.6069 16.094 24.8555 16.5132 24.8555C21.4469 23.1925 24.9996 18.5292 24.9996 13.0359C24.9996 6.14692 19.4158 0.568361 12.5331 0.568361C5.64204 0.565241 0.0634766 6.14484 0.0634766 13.0338Z" fill="white"/>
</svg>
