<svg width="47" height="47" viewBox="0 0 47 47" fill="none" xmlns="http://www.w3.org/2000/svg">
<g clip-path="url(#clip0_453_3292)">
<path d="M28.0684 5.13281C28.4497 5.13281 28.8153 5.28426 29.0849 5.55385C29.3545 5.82343 29.5059 6.18906 29.5059 6.57031C29.5059 6.95156 29.3545 7.31719 29.0849 7.58678C28.8153 7.85636 28.4497 8.00781 28.0684 8.00781H11.7135C10.5509 8.00781 9.436 8.46964 8.61395 9.29169C7.7919 10.1137 7.33008 11.2287 7.33008 12.3912V35.2494C7.33008 35.825 7.44346 36.395 7.66375 36.9269C7.88403 37.4587 8.20691 37.9419 8.61395 38.3489C9.02099 38.756 9.50421 39.0789 10.036 39.2991C10.5679 39.5194 11.1379 39.6328 11.7135 39.6328H34.5007C35.66 39.6328 36.772 39.1736 37.5935 38.3557C38.415 37.5378 38.8791 36.4278 38.8842 35.2686L38.9551 19.2347C38.9567 18.8534 39.1098 18.4885 39.3805 18.22C39.6513 17.9516 40.0176 17.8018 40.3988 17.8034C40.7801 17.8051 41.145 17.9581 41.4134 18.2289C41.6819 18.4996 41.8317 18.8659 41.8301 19.2471L41.7592 35.281C41.7508 37.2006 40.9824 39.0387 39.6221 40.3931C38.2618 41.7475 36.4203 42.5078 34.5007 42.5078H11.7135C9.78844 42.5078 7.94224 41.7431 6.58102 40.3819C5.2198 39.0207 4.45508 37.1744 4.45508 35.2494V12.3912C4.45508 10.4662 5.2198 8.61997 6.58102 7.25875C7.94224 5.89754 9.78844 5.13281 11.7135 5.13281H28.0684Z" fill="white"/>
<path d="M33.9805 5.92155L20.6069 19.2203C20.3382 19.4875 20.1249 19.8051 19.9794 20.1549C19.8338 20.5047 19.7589 20.8798 19.7588 21.2587V23.6775C19.7586 24.4674 20.0678 25.2258 20.62 25.7904C21.1723 26.3551 21.9237 26.6809 22.7133 26.6982L25.0037 26.748C25.382 26.7564 25.7583 26.6901 26.1108 26.5528C26.4634 26.4154 26.7854 26.2099 27.0584 25.9478L40.6993 12.857C41.626 11.9674 42.1618 10.7464 42.1891 9.46206C42.2164 8.17775 41.733 6.93508 40.845 6.00684L40.7798 5.93976C39.8808 5.03587 38.6595 4.52607 37.3846 4.52248C36.1097 4.51889 34.8856 5.02179 33.9814 5.92059L33.9805 5.92155ZM38.7664 7.99443C39.1279 8.37234 39.3246 8.87824 39.3135 9.40109C39.3024 9.92394 39.0842 10.421 38.707 10.7832L25.0689 23.874L22.7775 23.8232C22.7394 23.8225 22.7031 23.8068 22.6764 23.7795C22.6497 23.7523 22.6347 23.7157 22.6347 23.6775V21.2587L36.0073 7.95992C36.3504 7.61892 36.8088 7.41892 37.2921 7.39941C37.7754 7.37989 38.2484 7.54228 38.6178 7.85451L38.7664 7.99443Z" fill="white"/>
<path d="M34.8372 7.77637L39.0903 12.0563L37.0509 14.0822L32.7979 9.80324L34.8372 7.77637Z" fill="white"/>
</g>
<defs>
<clipPath id="clip0_453_3292">
<rect width="46" height="46" fill="white" transform="translate(0.142578 0.820312)"/>
</clipPath>
</defs>
</svg>
